<svg viewBox="0 0 669 669" xmlns="http://www.w3.org/2000/svg">
<path d="m199 296c-9.8-0.122-18.9-0.748-28-4.82-37.2-16.6-49.5-62.4-33.4-98 7.05-15.4 19.9-27.4 35.7-33.3 15.4-5.77 36.6-5.36 51.5 1.53 35.5 16.4 49.4 63.4 32.3 97.8-9.26 18.5-21.1 28-40.4 34.7 0.107 2.1 0.456 4.27 0.74 6.37l0.253 0.201c4.48 3.61 4.16 5.24 4.78 10.8 8.01 1.5 10.2 3.84 13.2 11.2 4.26 0.873 7.65 1.32 12 1.47 1.23-1.46 2.48-3.12 3.66-4.65 8.94-11.6 20.5-21.2 32.3-29.7 0.303-3.44 0.176-7.62 0.011-11.1-8.02-8.48-12.4-15.2-15.1-26.6-2.51-10.3-1.84-20.8 4.77-29.5 2.36-3.11 5.56-6.44 7.46-9.78-1.96-4.63-2.64-9.88 1.05-14 2.95-3.28 6.22-3.43 10.3-3.64 2.25-1.83 4.2-4.28 6.41-6.09 22.4-18.4 57.3-16.5 82.7-5.64 17 7.3 31.6 19.5 40.9 35.4 2.63 4.49 4.55 9.52 6.42 14.3 3.22 1.8 5.94 3.24 8.04 6.44 4.11 6.26 2.84 14.9-3.43 19.2-1.94 1.34-4.14 2.27-6.16 3.54-1.29 5.22-3.42 12.9-4.2 18 8.56 7.25 10.3 14.7 8.82 25.7-0.356 2.61-1.16 8.01-0.395 10.4 2.41 7.49 4.8 14.5 6.6 22.2 2.3 9.47 3.75 19.1 4.32 28.9 0.284 5.08 0.111 10.2 0.444 15.2 0.676 10.4 3.39 21.2 6 31.3 3.72 14.4 20.6 70.9 31.3 77.2 3.01 1.79 6.78 2.36 10.2 2.99 4.77 0.875 9.57 1.57 14.4 2.1 6.64 0.706 13.6 1.02 20.1 2.2 4.85 0.878 11.3 3.02 11.1 8.97-0.115 3.84-1.61 5.06-4.19 7.58-2.42 1.46-4.63 3.31-7.1 4.61 7.65 1.84 22.5 5.73 26.6 12.7 1.48 2.51 1.88 5.5 1.12 8.31-2.62 9.85-18.1 12.5-26.8 14.3-25.5 5.22-52.2 8.75-78.3 7.25-8.7-0.529-20.3-3.25-28.5-5.69-3.09 6.97-9.81 19.1-17.4 21.5-6.67 2.04-14.8 4.76-21.5 1.32-4.13-2.14-10.1-4.64-11.7-9.32-2.77-7.97 1.93-16.3 6.44-22.4-8.19-2.69-12.7-5.9-20-9.61-2.16-1.09-12.5-2.17-15.5-2.58-6.15-0.8-12.3-1.76-18.4-2.88l-0.422 0.235c-4.6 2.61-6.94 7.62-11.3 10.1-7.71 4.31-44.5 14-53.9 14.7-4.91 0.343-10.3-0.412-15-1.7-3.96-1.08-6.47-3.82-8.38-7.34-1.16-2.15-1.69-4.41-0.98-6.81 1.18-3.98 5.1-7 8.68-8.81 2.96-1.51 6-2.78 8.78-4.61-7.83 1.24-11.2 1.19-19.3 1.1-3.44 5.61-7.46 9.87-14.1 11.5-9.7 2.31-45 1.58-53.1-3.75-1.91-1.26-2.79-2.82-3.19-5.04-0.071-0.408-0.133-0.82-0.185-1.23 1.54-7.69 14.4-12.6 21.1-16.2 2.9-1.56 5.69-3.32 8.34-5.27 3.69-2.69 7.76-6.14 10.5-9.93 12.3-17.4 17.7-41.3 19.5-62.3 1.52-17.7 1.98-33.7 4.76-51.3-2.34-0.415-5.62-0.928-7.65-2.23-1.7-1.03-2.46-3.69-2.77-5.58-1.16-7.19-2.31-14.4-3.55-21.6-5.48-1.29-8.57-2.37-12.2-7.14-4.65-6.04-5.85-14.1-4.85-21.5 0.766-5.69 3.85-9.2 8.25-12.5l-0.207-2.8c-0.372-4.5 1.3-8.17 0.565-12.6l-0.609-3.7zm41.2 133c3.31 0.03 13.4 1.42 14.9 1.25 0.347-1.16 0.295-1.28 0.306-2.46 1.7-15.3 3.9-29 8.18-44-7.21-2.13-10.5-3.49-17.3-6.6-4.54 17.1-5.4 34.2-6.04 51.8zm131 102c2.04 1.28 5.36 2.7 7.65 3.72 2.59 1.26 5.16 2.54 7.72 3.84-0.634-1.9-3.16-10.5-4.14-11.2-3.58 1.19-7.62 2.59-11.2 3.62zm-165-228 0.691-0.472c0.159-0.675 0.282-1.36 0.368-2.05 0.179-1.46 0.083-2.43-0.785-3.54l-0.801-0.086-0.427 0.504c0.849 2.44 0.233 3.82 0.954 5.64z" fill="#050A0F"/>
<path d="m290 206c6.59-9.85 12.6-16.8 24-21.1 20-7.72 42.5-6.2 62 1.68 1.47 0.405 3.06 1.03 4.46 1.65 19 8.44 36.9 25.5 42.8 45.9-2.9 0.656-3.76 0.572-5.74 2.72l-0.101 0.649c1.48 0.794 2.54 0.226 4.25-0.262 2.9-0.239 4.62 1e-3 7.23 1.46 5.25 3.5 6.89 8.82 3.09 14.2l-0.376 0.527c-2.49 2.67-8.98 4.97-12.5 5.67-0.65 0.628-1.19 0.981-1.38 1.84 1.09 1.66 2.97 0.288 3.79 1.45-0.624 4.1-5.15 23.2-6.69 26.3-1.61 3.25-4.59 6.44-7.42 8.66-0.088 0.068-0.183 0.131-0.271 0.197-9.65 8.01-24.1 15.4-36 19.5-0.075-3.29 0.467-8.33 0.464-12.3-0.588-0.388-1.22 0.022-1.86 0.257-6.89 2.53-14.1 5.71-21.5 6.57-15.3 1.79-29.6-0.044-43.3-7.37-3.27-1.75-9.34-6.36-11.8-7.36l-0.616 2.43c0.016-1.85 0.304-13.6 0.541-14.1 0.657 0.345 0.882 0.427 1.59 0.671l0.371-0.279c-0.507-1.24-2.99-3.8-3.96-4.86-3.89-4.24-11.1-11.7-13.1-17-3.12-4.69-5.52-13.2-6.04-18.8-1.04-11.5 1.94-16.8 9.1-25.3 3.54-4.78 5.69-8.58 8.81-13.6z" fill="#F8F1D4"/>
<path d="m290 206c6.59-9.85 12.6-16.8 24-21.1 20-7.72 42.5-6.2 62 1.68 1.47 0.405 3.06 1.03 4.46 1.65 19 8.44 36.9 25.5 42.8 45.9-2.9 0.656-3.76 0.572-5.74 2.72l-0.101 0.649c1.48 0.794 2.54 0.226 4.25-0.262 2.9-0.239 4.62 1e-3 7.23 1.46 5.25 3.5 6.89 8.82 3.09 14.2l-0.375 0.527c-2.49 2.67-8.98 4.97-12.5 5.67-0.65 0.628-1.19 0.981-1.38 1.84 1.09 1.66 2.97 0.288 3.79 1.45-0.624 4.1-5.15 23.2-6.69 26.3-1.61 3.25-4.59 6.44-7.42 8.66-0.089 0.068-0.183 0.131-0.271 0.197-9.65 8.01-24.1 15.4-36 19.5-0.075-3.29 0.467-8.33 0.464-12.3l3e-3 -0.332c0.974-0.21 2.41-1.85 3.31-2.47 2.99-2.08 16.8-12.3 15.9-15.9 0.212-0.359 1.78-2.17 2.14-2.65 2.66-3.51 4.29-6.29 4.97-10.7 1.82-9.66-1.58-20.2-9.63-26.3-7.53-5.63-13.8-3.76-22.2-2.24-12.4 2.24-17.3-12.3-25.6-18.1-12.2-8.63-20.6-9.82-34.9-7.8l-0.882 0.858c-1.78 1.32-3.2 2.37-5.5 2.58-0.291 0.348-0.751 0.949-1.08 1.22l0.101 0.271-1.31 0.955c-1.98 0.513-2.42 0.638-4.53 0.66-2.75-0.846-4.66-2.92-7.57-4.28-0.946-0.328-2.65-0.728-3.67-1 3.54-4.78 5.69-8.58 8.81-13.6z" fill="#A97442"/>
<path d="m299 199c12.3-3.62 13.2 9.76 8.08 17.7-0.296 0.461-0.6 0.916-0.912 1.37l-0.882 0.858c-1.78 1.32-3.2 2.37-5.5 2.58-0.291 0.348-0.751 0.949-1.08 1.22l0.101 0.271-1.31 0.955c-1.98 0.513-2.42 0.638-4.53 0.66-2.75-0.846-4.66-2.92-7.57-4.28-0.946-0.328-2.65-0.728-3.67-1 3.54-4.78 5.69-8.58 8.81-13.6 0.47 0.752 0.624 0.906 0.938 1.74 1.49-4.03 4.02-6.29 7.53-8.45z" fill="#050A0F"/>
<path d="m295 204c-2.18 5.75-4.87 14.6 2.82 17.4 0.435 0.155 0.874 0.298 1.32 0.429-0.291 0.348-0.751 0.949-1.08 1.22l0.101 0.271-1.31 0.955c-1.98 0.513-2.42 0.638-4.53 0.66-2.75-0.846-4.66-2.92-7.57-4.28-0.946-0.328-2.65-0.728-3.67-1 3.54-4.78 5.69-8.58 8.81-13.6 0.47 0.751 0.624 0.906 0.938 1.74l-1.04 3.87 0.479 0.756c1.15-3.56 2.42-5.47 4.74-8.44z" fill="#FBFBFB"/>
<path d="m290 206c0.47 0.752 0.624 0.906 0.938 1.74l-1.04 3.87c-1.24 3.79-4.16 6.28-5.04 8.99-0.946-0.328-2.65-0.728-3.67-1 3.54-4.78 5.69-8.58 8.81-13.6z" fill="#C6986E"/>
<path d="m285 221c0.871-2.71 3.8-5.2 5.04-8.99l0.479 0.757c-0.609 3.52-0.91 5.82 1.29 9.01 0.282 0.404 0.575 0.801 0.878 1.19 0.178 0.878 0.68 1.78-0.115 2.31-2.75-0.846-4.66-2.92-7.57-4.28z" fill="#8E5E38"/>
<path d="m293 223c2.24 0.938 3.2 0.731 5.63 0.426l0.101 0.27-1.31 0.955c-1.98 0.513-2.42 0.638-4.53 0.66 0.795-0.531 0.293-1.43 0.115-2.31z" fill="#A97442"/>
<path d="m303 204c1.49-9e-3 2.72 1.16 2.79 2.65s-1.05 2.76-2.53 2.89c-1.01 0.087-1.99-0.387-2.55-1.24s-0.61-1.94-0.131-2.83c0.48-0.897 1.41-1.46 2.43-1.47z" fill="#FBFBFB"/>
<path d="m290 206c6.59-9.85 12.6-16.8 24-21.1 20-7.72 42.5-6.2 62 1.68-2.24 0.495-12.7-4.37-16-4.22-0.187 9e-3 -3.2 1.4-3.55 1.6l0.199 0.263c6.74 0.4 9.49 2.38 15.1 3.22l-0.167 0.319c-5.33-1.31-10.7-2.68-16.2-3.38-17.8-2.28-38.3-0.131-53 11-1.45 1.1-3.1 2.24-3.88 3.89-3.51 2.16-6.04 4.42-7.53 8.45-0.314-0.838-0.467-0.993-0.938-1.74z" fill="#C6986E"/>
<path d="m417 251c0.627 1.04 1.13 1.94 1.7 3l0.657 0.257c0.186 1.23-0.085 3.69-0.183 5.03-0.65 0.628-1.19 0.981-1.38 1.84 1.09 1.66 2.97 0.288 3.79 1.45-0.624 4.1-5.15 23.2-6.69 26.3-1.61 3.25-4.59 6.44-7.42 8.66-0.089 0.068-0.183 0.131-0.271 0.197 0.032-2.24 0.865-5.15 1.24-7.41 1.38-8.4 3.63-16.5 5.78-24.7 1.23-4.7 1.59-9.92 2.77-14.7z" fill="#8E5E38"/>
<path d="m419 254c1.74-1.6 0.487-4.97 2.05-6.94 2.74-3.43 5.8-3.08 8.97-0.859l0.378-0.353 0.131 0.593c-0.493 0.499-1.01 0.792-0.99 1.34 0.056 1.49 1.58 4.66 2.47 5.84-2.49 2.67-8.98 4.97-12.5 5.67 0.098-1.34 0.369-3.8 0.183-5.03l-0.657-0.257z" fill="#795335"/>
<path d="m417 251c-2.64-7.9 9.11-12.7 13.1-5.14l-0.379 0.353c-3.17-2.23-6.24-2.57-8.97 0.859-1.56 1.96-0.314 5.34-2.05 6.94-0.568-1.07-1.07-1.97-1.7-3z" fill="#050A0F"/>
<path d="m422 237c2.9-0.239 4.62 2e-3 7.23 1.46-1.96 1.33-4.6 2.73-6.83 1.34-0.703-1.21-0.441-1.15-0.399-2.81z" fill="#C6986E"/>
<path d="m353 234c-2.27-2.17-2.94-4.34-3.13-7.48-0.882-14.5 15-21.9 25.3-11.4 5.32 5.47 5.91 14.5 0.927 20.6-0.516 0.028-0.336 0.108-0.581-0.041-4.58 8.32-22 4.78-22.5-1.76z" fill="#050A0F"/>
<path d="m366 213c9.45 2.96 13.6 11.8 10.3 20.9-0.203 0.568-0.419 1.13-0.647 1.69-4.58 8.32-22 4.78-22.5-1.76 15.1 9.17 25.3-10.4 13.9-20-0.34-0.285-0.699-0.581-1.04-0.862z" fill="#FBFBFB"/>
<path d="m358 216c4.18 1.52 4.8 4.88 0.539 7.08-4.83-1.36-3.98-4.7-0.539-7.08z" fill="#FBFBFB"/>
<path d="m277 260c2.83 3.02 6.6 5.52 9.98 7.97 17 12.3 35.4 19.5 56.5 20.3 18.3 0.673 31.3-1.93 47.4-11.1 2.76-1.57 4.82-3.45 7.04-4.79-0.683 4.38-2.31 7.15-4.97 10.7-0.356 0.473-1.92 2.29-2.14 2.65 0.859 3.58-12.9 13.8-15.9 15.9-0.899 0.621-2.34 2.26-3.31 2.47l-3e-3 0.332c-0.588-0.388-1.22 0.022-1.86 0.257-6.89 2.53-14.1 5.71-21.5 6.57-15.3 1.79-29.6-0.044-43.3-7.37-3.27-1.75-9.34-6.36-11.8-7.36l-0.616 2.43c0.016-1.85 0.304-13.6 0.541-14.1 0.657 0.345 0.882 0.427 1.59 0.671l0.371-0.279c-0.507-1.24-2.99-3.8-3.96-4.86-3.89-4.24-11.1-11.7-13.1-17l0.25-0.613-1.21-2.73z" fill="#C6C0AF"/>
<path d="m391 286c0.859 3.58-12.9 13.8-15.9 15.9-0.898 0.621-2.34 2.26-3.31 2.47-0.444-3.15-0.483-5.16-1.37-8.26 8.68-2.05 13.6-4.35 20.6-10.1z" fill="#8E5E38"/>
<path d="m308 221c8.12-2.01 15-0.043 21.6 3.82 15.8 9.21-7.27 17.6-14.9 18.6-0.132 0.016-0.44 1.68-0.29 1.86 0.761 3.98 4.86 8.67 7.74 11.4 2.8 2.65 7.92 1.67 8.98 3.84-0.206 0.676-0.745 1.62-1.41 1.83-8.14 2.63-14.2-6.12-17.2-11.2-3.31 2.26-11 10.2-14.6 5.42-0.311-1.57 0.144-2.59 1.86-2.78 0.387 0.19 1.08 0.692 1.43 0.48 4.55-2.78 9.53-6.54 10.3-12-5.22-4.98-7.5-7.76-8.37-15.1 0.122-0.566 0.258-1.13 0.409-1.69 0.734-2.62 2.26-3.26 4.47-4.46z" fill="#050A0F"/>
<path d="m305 219c1.41 0.24 1.8 0.207 2.66 1.38-2.22 1.2-3.74 1.84-4.47 4.46-0.151 0.558-0.287 1.12-0.409 1.69-1.65-0.369-4.62-1.12-5.57-2.51l1.31-0.955-0.101-0.271c0.326-0.269 0.786-0.87 1.08-1.22 2.31-0.209 3.73-1.26 5.5-2.58z" fill="#FBFBFB"/>
<path d="m189 161c2.32-0.131 5.32-0.339 7.58 0.204 13.9 1.24 29.1 10.8 37.9 21.4 12.2 14.7 17.9 33.6 16 52.6-0.58 6.08-1.75 11.1-3.79 16.7-21.5 59.7-94.9 51-110-7.87-0.525-2.07-1.26-4.61-1.39-6.74-0.229-1.2-0.404-2.4-0.522-3.62-3.42-34.3 17.9-69.3 54-72.7z" fill="#F5F7FA"/>
<path d="m136 237c-0.229-1.2-0.404-2.4-0.522-3.61-3.42-34.3 17.9-69.3 54-72.7l-0.098 0.964c-3.06 1.82-6.7 1.91-9.39 3.19-11.1 2.22-24.9 14.6-31.2 23.8-5.45 7.94-9.3 20.6-11.3 30-0.766 3.61 0.257 16.8-1.53 18.3z" fill="#B4B4B5"/>
<path d="m189 161c2.32-0.131 5.32-0.339 7.58 0.204-0.911 0.981-3.63 0.931-5.19 1.13-3.54 0.452-8.5 2.89-11.9 2.82 2.69-1.28 6.34-1.37 9.39-3.19l0.098-0.964z" fill="#F5F7FA"/>
<path d="m190 168 0.47-0.031c30.5-1.92 54 27.4 55 56.1 1.08 29.9-17.3 59.7-49.3 61.3-13.6 0.337-23.5-3.4-34-12-37.4-30.8-25.3-102 27.8-105z" fill="#050A0F"/>
<path d="m163 189c1.64-7.27 15.9-14 22.1-16.6 1.99-4.11 5.12-2.52 8.92-1.72 0.102 0.021 1.86 0.82 2.05 0.912 48.7 6 60.7 72.4 24.7 101-19 15.2-44.5 6.02-57.7-12.2-9.89-13.7-13-29.8-10.5-46.4 1.02-6.76 3.3-13.3 6.72-19.2 0.294-0.513 3.59-5.95 3.63-6.08z" fill="#C2E1E4"/>
<path d="m163 189c1.64-7.27 15.9-14 22.1-16.6 1.99-4.11 5.12-2.52 8.92-1.72 0.102 0.021 1.86 0.82 2.05 0.912-12.6 0.679-22.2 5.27-30.7 14.7-0.648 0.716-1.82 2.16-2.43 2.76z" fill="#070F1A"/>
<path d="m173 189c14-0.659 8.23 19.8-2.75 22.2-4.42 0.179-5.93 0.356-8.35-3.46-1.04-8.28 2.98-16.1 11.1-18.7z" fill="#FBFBFB"/>
<path d="m219 252c6.27 0.536 5.34 4.04 5.3 9.34-2.33 2.38-2.64 3.2-5.83 3.51-1.3-0.077-3.37-0.178-4.42-0.969-1.22-0.931-2-2.32-2.16-3.84-0.534-4.67 2.75-7.52 7.11-8.04z" fill="#FBFBFB"/>
<path d="m162 216c1.83 0.093 3.47 0.662 4.07 2.46 1.03 3.09-0.464 4.11-2.8 4.91-3.87 0.989-4.87-3.28-3.49-6 0.524-1.03 1.2-1.02 2.22-1.37z" fill="#FBFBFB"/>
<path d="m167 178 0.427 1.13c-3.36 3.2-6.49 6.24-9.16 10-10.5 14.9-13.1 35.3-8.33 52.8 3.41 12.5 10.1 23.3 20.2 31.6 2.45 2.01 5.04 3.28 7.61 5.03l-0.053 0.21-0.498-0.063c-42.9-17.6-43.9-79.1-10.2-101z" fill="#F5F7FA"/>
<path d="m167 178c1.26-0.97 3.51-2.63 5.03-3.05-0.941 1.27-3.3 3.15-4.61 4.18l-0.427-1.13z" fill="#F5F7FA"/>
<path d="m293 299 0.616-2.43c2.42 1 8.49 5.61 11.8 7.36 13.7 7.32 28 9.15 43.3 7.37 7.37-0.863 14.6-4.04 21.5-6.57 0.64-0.235 1.27-0.645 1.86-0.257 3e-3 3.93-0.539 8.97-0.464 12.3-8.64 3.15-16.4 5.58-25.3 8.19-20.6 6.08-38.5 11.3-48.3 32.3-1.85 3.95-3.22 8.1-4.09 12.4-1.05 5.06-1.64 11-2.18 16.2-3.04 29-2.5 60.4 0.607 89.4 0.853 7.94 1.94 18.2 4.69 25.6 0.426 1.15 0.897 2.28 1.41 3.4 7.68 10.8 17.5 9.28 29.4 12.6 5.62 1.19 15.5 4.97 20.5 8.01 1.25 2.86 2.89 4.95 4.01 7.53-16.9-3.08-32.8-2.83-48.8-11-3.16-1.62-6.21-3.43-9.14-5.42-1.54-1.06-3.81-2.88-5.28-3.71 4.88 9.26 16.1 14.5 25.5 17.8-2.22 2.11-6.31 7.08-8.44 8.33-6.31 3.7-46.9 14.2-54 14.3-0.727 0-1.16-0.13-1.73-0.575-0.346-4.3 10.9-8.24 13.4-10.4-2.16-3.4-14 3.94-16.4 6.15-0.499 1.3-1.35 2.49-2.11 3.67-2.87-0.183-7.51 0.212-7.55-3.66 2.38-6.15 13.4-8.2 14.4-11l-0.572-0.347c-6.43-0.352-12.4 4.72-17 8.51l0.338-1.18c1.49-5.27 7.87-8.7 12.9-9.96 5.63-2.61 11-3.6 17-4.4 2.23 0.624 3.96 1.02 6.23 1.47 1.72 0.304 5.78 1.44 6.72-0.274-0.662-1.79-7.23-3.35-9.61-4.42-6.19-2.79-11-9.09-14.9-14.4-2.02-2.46-3.28-5.28-4.28-8.26-3.46-12.3-1.09-21.4 2.93-33.3 1.65-4.88 3.09-8.96 5.17-13.7 0.491 1.88 0.766 2.94 1.01 4.91 0.195 1.35 0.402 2.95 1.64 3.75l0.48-0.45c0.589-1.47 0.305-2.6 0.148-4.2 0.234-0.092 0.626-0.236 0.828-0.366 1.4-0.922 1.83-11.9 1.94-14.2 0.228-4.69 0.303-9.4 0.741-14.1 0.881-9.4 2.59-18.4 4.23-27.7 1.74-10.3 3.69-20.5 5.87-30.8 0.287 1.49-0.445 4.25-0.66 6.04l0.602 0.15c1.74-1.21 1.29-4.82 2.32-7.65l0.321 0.836c0.407-1.16 1.4-6.12 1.74-7.63 1.1-5 2.26-9.99 3.48-15 4.08-17 9.66-34 11.3-51.3z" fill="#F8F1D4"/>
<path d="m260 461c0.234-0.092 0.626-0.236 0.828-0.366 1.4-0.921 1.83-11.9 1.94-14.2 0.228-4.69 0.303-9.4 0.741-14.1 0.881-9.4 2.59-18.4 4.23-27.7 1.74-10.3 3.69-20.5 5.87-30.8 0.287 1.49-0.445 4.25-0.66 6.04l0.602 0.15c1.74-1.21 1.29-4.82 2.32-7.65l0.321 0.836c-7.97 41.4-21.7 104 21 132 0.433-0.016 0.521 0.036 0.895-0.118 7.68 10.8 17.5 9.28 29.4 12.6 5.62 1.19 15.5 4.97 20.5 8.01 1.25 2.86 2.89 4.94 4.01 7.53-16.9-3.08-32.8-2.83-48.8-11-3.16-1.62-6.21-3.43-9.14-5.42-1.54-1.06-3.81-2.88-5.28-3.71 4.88 9.26 16.1 14.5 25.5 17.8-2.22 2.11-6.31 7.08-8.44 8.33-6.31 3.7-46.9 14.2-54 14.3-0.727 0-1.16-0.13-1.73-0.575-0.346-4.3 10.9-8.24 13.4-10.4-2.16-3.4-14 3.94-16.4 6.15-0.499 1.3-1.35 2.49-2.11 3.67-2.87-0.183-7.51 0.212-7.55-3.66 2.38-6.15 13.4-8.2 14.4-11l-0.572-0.347c-6.43-0.352-12.4 4.72-17 8.51l0.338-1.18c1.49-5.27 7.87-8.7 12.9-9.96 5.63-2.61 11-3.6 17-4.4 2.23 0.624 3.96 1.02 6.23 1.47 1.72 0.304 5.78 1.44 6.72-0.274-0.662-1.79-7.23-3.35-9.61-4.42-6.19-2.79-11-9.09-14.9-14.4-2.02-2.46-3.28-5.28-4.28-8.26-3.46-12.3-1.09-21.4 2.93-33.3 1.65-4.88 3.09-8.96 5.17-13.7 0.491 1.88 0.766 2.94 1.01 4.91 0.195 1.35 0.402 2.95 1.64 3.75l0.48-0.45c0.589-1.47 0.305-2.6 0.148-4.2z" fill="#A97442"/>
<path d="m277 499c13.8 11.7 34 22 52.6 20.9-1.44-0.745-4.42 0.572-6.24-0.522 0.495-1.54 1.46 0.251 0.963-1.38-6.44 2.1-8.37 0.098-14.8-1.13-1.62-0.314-2.45-1.09-2.61-2.75 1.16-1.21 2.33-0.268 3.82 0.218 5.5 1.8 11.3 2.59 17 3.75l0.242-0.5c5.62 1.19 15.5 4.97 20.5 8.01 1.25 2.86 2.89 4.95 4.01 7.53-16.9-3.08-32.8-2.83-48.8-11-3.16-1.62-6.21-3.43-9.14-5.42-1.54-1.06-3.81-2.88-5.28-3.71 4.88 9.26 16.1 14.5 25.5 17.8-2.22 2.11-6.31 7.08-8.44 8.33-6.31 3.7-46.9 14.2-54 14.3-0.727 0-1.16-0.131-1.73-0.575-0.346-4.3 10.9-8.24 13.4-10.4-2.16-3.4-14 3.94-16.4 6.15-0.499 1.3-1.35 2.49-2.11 3.67-2.87-0.183-7.51 0.212-7.55-3.66 2.38-6.15 13.4-8.2 14.4-11l-0.572-0.347c-6.43-0.353-12.4 4.72-17 8.51l0.338-1.18c1.49-5.27 7.87-8.7 12.9-9.96 5.63-2.61 11-3.6 17-4.4 2.23 0.624 3.96 1.02 6.23 1.47 1.72 0.304 5.78 1.44 6.72-0.274-0.662-1.79-7.23-3.35-9.61-4.42-6.19-2.79-11-9.09-14.9-14.4 2.01 0.415 5.6 2.55 7.48 3.65 7.52 4.39 16.8 7.65 25.4 4.23-1.18-8.36-5.6-13.9-9.21-21.4z" fill="#90603A"/>
<path d="m248 534c5.63-2.61 11-3.6 17-4.4-0.242 1.34-0.341 1.53-0.06 2.82-1.02 0.643-0.444 0.17-1.28 0.278-4.28 0.552-9.02 3.25-13.4 1.62-1.06-0.392-1.3-0.17-2.25-0.314z" fill="#C6986E"/>
<path d="m245 552c-2.87-0.183-7.51 0.212-7.55-3.66l0.483 0.536c2.72-0.15 6.8-0.01 9.18-0.549-0.499 1.3-1.35 2.49-2.11 3.67z" fill="#795335"/>
<path d="m265 530c2.23 0.624 3.96 1.02 6.23 1.47 1.26 2.23 2.57 2.9 5.18 3.1l0.131 0.274c-2.55 0.461-7.51-2.81-11.6-2.02-0.281-1.29-0.182-1.47 0.06-2.82z" fill="#8E5E38"/>
<path d="m257 457c0.491 1.88 0.766 2.94 1.01 4.91 0.05 3.89-2.5 9.19-3.84 13.1-0.824 2.43-1.49 4.9-2 7.41-1.01 4.82-1.26 9.1-1.51 14-0.112 2.18 0.25 5.33-0.28 7.18l-0.545 0.487-0.928-0.085c-3.46-12.3-1.09-21.4 2.93-33.3 1.65-4.88 3.09-8.96 5.17-13.7z" fill="#C6986E"/>
<path d="m382 458c10.7-3.55 21.3-7.28 31.9-11.2 5.3-1.97 11.9-4.84 17.1-6.5 5.71 16.3 15.3 37.2 23 52.5-14.9 6.47-34.4 14.5-49.8 19.6-5.7 2.12-11.2 4-16.9 6.25-2.07-6.25-4.64-13.3-6.46-19.6-4.17-12.1-8.08-24.8-12-37 2.33-0.611 4.82-1.4 7.15-2.08 0.536 5.05 1.42 9.72 2.36 14.7 1.52 5.75 3.18 11.2 6.03 16.4-0.686-4.85-2.11-9.96-3.14-14.8-1.16-5.72-2.1-11.5-2.83-17.3l3.48-1.01z" fill="#FBFBFB"/>
<path d="m378 459 3.48-1.01c-0.303 1.6 1.6 6.43 2.22 8.34 4.98 15.5 11.7 32.1 20 46.1-5.7 2.12-11.2 4-16.9 6.25-2.07-6.25-4.64-13.3-6.46-19.6-4.17-12.1-8.08-24.8-12-37 2.33-0.611 4.82-1.4 7.15-2.08 0.536 5.05 1.42 9.72 2.36 14.7 1.52 5.75 3.18 11.2 6.03 16.4-0.686-4.85-2.11-9.96-3.14-14.8-1.16-5.72-2.1-11.5-2.83-17.3z" fill="#C6C0AF"/>
<path d="m369 462c2.33-0.611 4.82-1.4 7.15-2.08 0.536 5.05 1.42 9.72 2.36 14.7-0.644 6.76 2.3 15.6 3.47 22.2 0.121 0.686 0.052 1.33-0.281 1.94l-0.712 0.196c-4.17-12.1-8.08-24.8-12-37z" fill="#FBFBFB"/>
<path d="m330 335c9.11-3.22 18.3-5.62 27.6-8.43 10.1-2.98 19.9-6.63 29.5-10.9 1.24 4.4 6.56 17 8.49 21.9l1.5 4.4c0.277 0.882 0.042 1.15 0.284 1.78 1.02 1.56 1.41 2.86 2.06 4.6 2.99 7.54 5.55 15.6 8.11 23.3-19.5 8.78-39.4 16.4-59.8 22.8-3.4-10.9-6.67-21.8-9.83-32.7-2.49-8.68-5.04-18.2-7.9-26.7z" fill="#F5CB3A"/>
<path d="m396 338 1.5 4.4c0.278 0.882 0.042 1.15 0.284 1.78 1.02 1.56 1.41 2.86 2.06 4.6-9.48 2.83-16.1 4.34-26 4.7 7.63-3.7 16.3-9.46 22.2-15.5z" fill="#DD9D31"/>
<path d="m397 342c0.277 0.882 0.042 1.15 0.284 1.78-1.72 1.29-6.44 2.97-8.49 3.65 2.02-1.58 7.57-4.09 8.21-5.43z" fill="#432A24"/>
<path d="m408 519c10.4-3.92 20.9-7.94 31.2-12.1 5.56-2.25 12.7-5.59 18.1-7.54 5.91 12.4 14.3 24.9 22 36.4 2.68 3.98 6.79 8.21 9.36 12.2 2.45 3.03 3.76 4.63 6.57 7.39-36.3 5.84-65.2 3.12-99.1-11.6-2.34-6.02-4.5-12.1-6.49-18.3 6.12-2.12 12.2-4.27 18.3-6.45z" fill="#C63624"/>
<path d="m390 525c6.12-2.12 12.2-4.27 18.3-6.45 7.81 13.9 21.4 25.3 36.8 29.9 9.52 2.85 21.3 0.804 31.1 0.069 3.6-0.275 9.47-0.03 12.8-0.98 2.45 3.03 3.76 4.63 6.57 7.39-36.3 5.84-65.2 3.12-99.1-11.6-2.34-6.02-4.5-12.1-6.49-18.3z" fill="#9B2818"/>
<path d="m350 402c15.4-4.35 30.3-10.3 45.2-16.2 5.01-2 9.97-4.48 14.9-6.49 1.86 4.4 3.16 9.56 4.74 14.2 4.65 13.6 8.52 26.4 13.9 39.8-10.4 4.12-20.9 8.04-31.4 11.8-4.32 1.53-14 4.98-18.2 5.95-1.03 0.35-0.627 0.359-1.61 0.18-1-1.44-0.82-6.9-0.944-9.11-0.157-1.94-0.562-4.44-0.823-6.41l-1.31-0.676 0.85 17.4c-2.59 0.866-6.09 1.92-8.56 2.9-5.89-17.3-10.8-35.8-16.7-53.3z" fill="#0C4B93"/>
<path d="m376 442c0.503 1.62 0.83 2.39 2.11 3.57 0.065 0.833 0.29 4.9 0.444 5.36-1.03 0.35-0.627 0.359-1.61 0.18-1-1.44-0.82-6.9-0.944-9.11z" fill="#0A3876"/>
<path d="m374 427c0.823 2.45 1.09 5.4 1.43 8l-1.31-0.676c-0.147-2.63-0.169-4.69-0.12-7.32z" fill="#070F1A"/>
<path d="m294 417c4.48-1.14 8.98-2.07 13.5-3.26 11.6-3.06 23.2-6.81 34.7-10.1 5.43 17.8 11.1 35.5 17 53.1-4.13 1.15-26.4 7.88-28.8 7.71-1.06 0.153-1.1 0.081-2 0.627-1.54 0.761-5.48 1.69-7.33 2.18l-24.5 5.59c-0.571-3.18-0.994-8.97-1.25-12.3-1.07-14.2-1.46-29.3-1.33-43.6z" fill="#C63624"/>
<path d="m322 468c0.244-1.78-0.353-5.22-0.535-7.08-0.548-5.59-3.2-35.4 0.039-38.6l0.526 0.314c1.51 3.72 3.02 13.7 4.04 18 0.483 2.04 1.68 7.23 1.96 9.11 0.941 3.92 2.86 11.6 3.3 15.4-1.06 0.153-1.1 0.081-2 0.627-1.55 0.761-5.48 1.69-7.33 2.18z" fill="#9B2818"/>
<path d="m329 466c-0.229-3.25-1.9-13.5-1.71-15.7l0.411-0.278c0.941 3.92 2.86 11.6 3.3 15.4-1.06 0.153-1.1 0.081-2 0.627z" fill="#170503"/>
<path d="m289 282c1.69 1.24 2.79 2.77 4.7 3.31-0.236 0.54-0.524 12.3-0.54 14.1-1.61 17.3-7.19 34.3-11.3 51.3-1.22 4.97-2.38 9.96-3.48 15-0.337 1.51-1.33 6.47-1.74 7.63l-0.321-0.836c-1.03 2.82-0.582 6.44-2.32 7.65l-0.602-0.15c0.215-1.78 0.947-4.55 0.66-6.04-2.18 10.2-4.14 20.5-5.87 30.8-1.63 9.27-3.35 18.3-4.23 27.7-0.438 4.67-0.513 9.38-0.741 14.1-0.11 2.24-0.535 13.3-1.94 14.2-0.203 0.13-0.595 0.274-0.829 0.366-0.401-2.2-0.438-7.6-0.489-10-0.417-16.6 1.11-33.2 4.54-49.5 2.08-9.97 4.92-20 7.34-30 2.57-10.6 5.69-21.3 2.78-32.2-0.2-0.748-0.098-0.653-0.711-0.967-1.4 1.54-1.14 4.04-1.14 6.08-0.327 9.61-4 26.1-8.06 34.9-7.41-2.13-27.9-11.2-32.5-17.5-0.942-8.36-3.12-16.8-4.07-25.1-0.482-5.62-0.799-5.83-5.66-8.31-2.51-1.28-3.56-6.76-1.89-9.39 2.08-2.22 5.09-3.58 7.44-0.727 4.01 4.87 4.63 10.8 4.34 16.9l0.257 3.28c3.38-0.781 3.04-8.56 3.01-11.2 1.45 0.066 4.4 0.673 6.05 0.902 3.74 0.532 7.53 0.673 11.3 0.421 12.8-0.888 20.1-7.22 28.1-16.3-0.516 3.36-1.04 5.69-2.32 8.84-9e-3 1.18-0.126 1.68 0.418 2.64 1.02-0.646 2.12-3.9 2.64-5.2 3.82-9.83 5.98-16 6.8-26.8 0.144-3.27 0.264-6.54 0.363-9.81z" fill="#AD7A49"/>
<path d="m220 319c2.08-2.22 5.09-3.58 7.44-0.727 4.01 4.87 4.63 10.8 4.34 16.9l0.257 3.28-0.492-0.284 0.047 0.421c-2.56 1.34 0.817 8.17 1.85 10.1 12.5 6.16 14 9.95 29.5 8.17 4.15-2.77 8.13-7.56 9.22-12.5-0.327 9.61-4 26.1-8.06 34.9-7.41-2.13-27.9-11.2-32.5-17.5-0.942-8.36-3.12-16.8-4.07-25.1-0.482-5.62-0.799-5.83-5.66-8.31-2.51-1.28-3.56-6.76-1.89-9.39z" fill="#8B5D3A"/>
<path d="m220 319c2.08-2.22 5.09-3.58 7.44-0.727 4.01 4.87 4.63 10.8 4.34 16.9-0.393 0.14-0.144 0.098-0.754-0.072-0.604-1.18-0.739-4.76-0.928-6.41-2.28-2.43-3.73-5.36-6.13-7.59-1.12-1.04-2.58-0.701-3.96-2.07z" fill="#C6986E"/>
<path d="m236 327c1.45 0.066 4.4 0.673 6.05 0.902 3.74 0.533 7.53 0.673 11.3 0.421 12.8-0.888 20.1-7.22 28.1-16.3-0.516 3.36-1.04 5.69-2.32 8.84l-0.309 0.184c-2.77 1.68-4.9 3.59-7.81 5.21-9.49 5.32-20.6 6.85-31.2 4.28-2.54-0.634-3.39-1.09-3.79-3.54z" fill="#C6986E"/>
<path d="m289 292 0.61-0.734c7.41 1.01-3.84 24.8-6.26 27.9l-0.566 0.068-0.582-0.501c3.82-9.83 5.98-16 6.8-26.8z" fill="#C6986E"/>
<path d="m295 410c0.551-4.21 0.539-9.2 0.862-13.5 1.78-23.7 3.21-46 27.6-57.2 2.39 6.81 3.84 12.6 5.77 19.5l1.25 4.11c3.75 11.2 6.48 23.3 10.6 34.5-10.2 3.14-20.4 6.1-30.6 8.89-4.84 1.28-10.6 2.91-15.5 3.75z" fill="#0C4B93"/>
<path d="m329 358 1.25 4.11c-2.13 0.604-10.1 12.8-11.6 15.5-3.81 6.79-5.31 14.5-9.26 21.2-0.214-1.15-0.48-2.89-0.845-3.94 1.79-1.32 2.45-8.95 3.21-11.7 2.33-8.34 5.62-13.8 11.6-20 1.42-1.49 3.68-3.14 4.39-4.8 0.62 7e-3 0.584-0.108 1.24-0.451z" fill="#0A3876"/>
<path d="m328 359c-0.703 1.67-2.96 3.32-4.39 4.8-5.97 6.24-9.26 11.7-11.6 20-0.756 2.7-1.42 10.3-3.21 11.7-1.65-12.8 2.98-27.4 14.5-34.3 1.51-0.909 3.01-1.72 4.72-2.19z" fill="#050A0F"/>
<path d="m465 497-0.432-0.68c0.36-1.2 7.22-3.71 8.76-4.38 9 11.4 23.4 22.2 36.7 27.9 9.3 3.47 31.1 7.92 36.5 14.2 3.88 7.81-3.73 11.6-10 13.2-10.6 2.67-21.2 5.1-32.1 6.38-1.96-1.95-5.14-5.29-6.88-7.54-9.85-9.66-26.8-36.7-32.5-49.1z" fill="#0C4B93"/>
<path d="m547 534c3.88 7.81-3.73 11.6-10 13.2-10.6 2.66-21.2 5.1-32.1 6.38-1.96-1.95-5.14-5.29-6.88-7.54 5.08-0.699 12.6-0.85 17.5-1.86 5.26-1.08 29.9-6.82 31.6-10.2z" fill="#0A3876"/>
<path d="m465 497-0.432-0.68c0.36-1.2 7.22-3.71 8.76-4.38 9 11.4 23.4 22.2 36.7 27.9-3.68 0.03-6.16 0.536-10.1-0.095-11.1-1.79-19.2-8.71-27-16.2-1.65-1.57-5.52-8.04-7.74-7.33l-0.238 0.817z" fill="#0A3876"/>
<path d="m334 472c8.81-2.1 19-5.25 27.8-7.83 1.31 5.8 4.16 12.7 5.96 18.5 3.9 12.6 8.71 25.5 12.6 38-5.67 1.9-13.1 4.29-18.8 5.59-2.4-1.15-5.91-3.09-8.15-4.07-10.4-4.47-14-24.5-17-34.3-0.598-2.01-3.45-14-3.24-15.4l0.787-0.468z" fill="#0C4B93"/>
<path d="m353 522c-10.4-4.47-14-24.5-17-34.3-0.598-2.01-3.45-14-3.24-15.4l0.787-0.468c-0.219 1.06-0.249 1.25 0.388 2.12 1.47 2.02 4.64 13 5.83 16.3 2.57 6.96 5.71 13.8 8.68 20.6 1.44 3.29 4.04 7.7 4.53 11.2z" fill="#0A3876"/>
<path d="m322 475c2.76-0.67 5.54-1.31 8.31-1.91 1.31 10.8 4.12 23.1 7.35 33.5 0.967 3.13 2.77 7.06 3.98 10.2-3.18-1.26-6.4-2.38-9.67-3.35-0.128-0.04-4.27-1.21-4.07-1.11-7.28-1.93-16.9-2.39-22.8-6.9-5.79-4.46-6.59-17.6-7.43-24.8 8.14-1.73 16.3-3.6 24.3-5.61z" fill="#0C4B93"/>
<path d="m322 475c2.76-0.67 5.54-1.31 8.31-1.91 1.31 10.8 4.12 23.1 7.35 33.5 0.967 3.13 2.77 7.06 3.98 10.2-3.18-1.26-6.4-2.38-9.67-3.35-0.128-0.04-4.27-1.21-4.07-1.11 0.529-0.33 0.287-0.121 0.574-0.826-1.18-7.12-2.97-14.1-4.02-21.2-0.353-2.41-1.16-14-1.74-15.1l-0.713-0.203z" fill="#0A3876"/>
<path d="m223 430c4.43 0.571 7.87 0.751 12.3 0.862-0.41 25 0.715 44.5-3.14 70-1.1-0.016-2.15-0.114-3.25-0.206-4.09-0.369-8.89-1.12-13-1.68 2.03-6.36 4.03-12.8 5.2-19.4 2.9-16.3 0.793-33.3 1.93-49.6z" fill="#C63624"/>
<path d="m405 341c10.2-6.12 16.8-10.5 22.3-21.4 4.86 13 7.59 24.7 9.45 38.5-2.26 1.37-6.57 3.66-9.09 4.66-4.13 2.64-8.38 4-12.7 6.51-2.35-4.58-5.96-17.6-8.41-23.8-0.572-1.46-1.1-2.95-1.6-4.44z" fill="#0A3876"/>
<path d="m406 345c2.12-1.27 10.8-4.32 12.9-3.97 3.91 0.633 7.53 18.4 8.23 21.3-4.13 2.64-8.38 4-12.7 6.51-2.35-4.58-5.96-17.6-8.41-23.8z" fill="#0C4B93"/>
<path d="m422 286c4.5 4.72 5.5 9.67 5.34 16-0.441 17.7-11 26.3-23.2 36.8-0.513-1.55-2.25-5.48-2.44-6.23-2.7-6.33-5-13.6-7.91-19.6 10.6-6.49 20.6-11.1 26.7-23 0.471-1.53 0.859-2.52 1.49-4z" fill="#0C4B93"/>
<path d="m422 286c4.5 4.72 5.5 9.67 5.34 16-0.441 17.7-11 26.3-23.2 36.8-0.512-1.55-2.25-5.48-2.44-6.23 4.69-2.82 11.9-11.3 14.6-16.1 4.34-7.55 7.4-16.5 5.26-25.4-0.222-0.918-0.241-0.702-1.07-1.12 0.471-1.53 0.859-2.52 1.49-4z" fill="#0A3876"/>
<path d="m383 547c2.81-0.441 6.89-1.63 9.26-0.647 6.12 2.83 12.2 5.76 18.7 7.6l3.11 1.07c-3.25 6.69-6.68 15.1-14.2 17.7-0.48 0.17-0.967 0.333-1.45 0.49-0.035-2.26-0.091-3.06 0.363-5.29 0.65-4.46 1.23-7.12 2.33-11.5-4.02 3.97-5.01 7.05-6.78 12.4-0.046 1.9-0.046 3.73-0.278 5.62-4.38 1.65-10.4 3.35-12.8-1.99-0.209-3.02-0.081-3.24 0.487-6.19 0.5-2.59 3.89-8.23 3.12-10.2l-0.569-0.01c-3.5 2.5-4.27 5.99-5.81 9.71-2.14 0.026-3.15 0.307-4.64-1.08-1.3-0.585-1.18-0.422-1.59-1.63 1.29-5.23 5.08-14.4 10.7-16z" fill="#A97442"/>
<path d="m410 554 3.11 1.07c-3.25 6.69-6.68 15.1-14.2 17.7-0.48 0.17-0.967 0.333-1.45 0.49-0.036-2.26-0.091-3.06 0.363-5.29l0.274 0.637c0.5 0.285 0.431 0.409 0.928 0.232 7.25-2.59 7.6-9.16 10.9-14.8z" fill="#8E5E38"/>
<path d="m383 547c0.219 0.839 0.271 0.699 0.229 1.52-2.53 3.01-5.39 6.2-7.04 9.8-0.784 1.72-1.37 4.84-2.34 6.28-1.3-0.585-1.18-0.422-1.59-1.63 1.29-5.23 5.08-14.4 10.7-16z" fill="#C6986E"/>
<path d="m381 573c4.34 0.294 11.2 1.43 13.1-3.63-0.046 1.9-0.046 3.73-0.278 5.62-4.38 1.65-10.4 3.35-12.8-1.99z" fill="#8E5E38"/>
<path d="m383 547c2.81-0.441 6.89-1.63 9.26-0.647-2.41 2.29-4.92 2.02-8.52 2.69l-0.513-0.52c0.042-0.823-0.01-0.683-0.229-1.52z" fill="#8E5E38"/>
<path d="m213 505c5.84 0.948 11.7 1.63 17.6 2.05-2.75 12-6.43 26.4-20 29.5-5.33 0.859-11.6 0.657-17 0.533 6.64-7.63 16.5-22.6 19.3-32.1z" fill="#FBFBFB"/>
<path d="m449 433c0.82 0.902 5.58 16.6 6.5 19 4.44 11.8 7.95 23.3 14 34.4-1.8 0.803-6.81 3.53-8.4 3.52l-0.624-0.869c-2.68-5.6-5.6-11.1-8.26-16.7-5.36-11.4-10.1-23-14.4-34.8 3.32-1.51 7.51-2.9 11.1-4.49z" fill="#DD9D31"/>
<path d="m240 182c1.54 1.72 3.31 3.66 5.74 3.94 0.701 0.082 1.04 0.132 1.67 0.493l0.581-0.175c9.4 11.7 13.9 32.8 12.5 47.6-2.16 23.4-15.2 45.3-37.6 54.4 3.63-2.85 7.46-5.58 10.7-8.84 20.7-20.7 26.1-53.5 15-80.2-1.56-3.76-3.38-7.31-5.28-10.9l0.236-0.212c-0.095-1.07-2.8-4.91-3.56-6.08z" fill="#F5F7FA"/>
<path d="m428 371c3.12-1.52 6.18-3.14 9.19-4.86 1.26 13.4-0.428 25.4-2.9 38.5-0.324 1.71-1.36 7.55-1.9 8.99-0.405 2.08-0.83 4.15-1.27 6.22-0.617-1.99-1.4-4.09-2.1-6.07l-12.3-37.3 11.3-5.52z" fill="#FBFBFB"/>
<path d="m428 371c3.12-1.52 6.18-3.14 9.19-4.86 1.26 13.4-0.428 25.4-2.9 38.5-0.324 1.71-1.36 7.55-1.9 8.99-0.405 2.08-0.83 4.15-1.27 6.22-0.617-1.99-1.4-4.09-2.1-6.07l0.533-0.029c0.748-0.696 0.784-1.74 0.993-2.81 0.241-3.6 0.947-9.46 0.94-13-0.013-5.31-1.23-22.8-3.5-27z" fill="#C6C0AF"/>
<path d="m429 413 0.533-0.029c0.748-0.696 0.784-1.74 0.993-2.81 0.444 1.45 0.588 2.07 0.81 3.57 0.199-0.813 0.16-0.624 0.179-1.46 0.716 0.153 0.428-0.036 0.853 0.575-0.405 2.08-0.83 4.15-1.27 6.22-0.617-1.99-1.4-4.09-2.1-6.07z" fill="#A7A6A6"/>
<path d="m234 369c1.46 1.13 3.3 2.37 4.84 3.45 1.37 0.872 2.54 1.63 3.87 2.59-0.896 2.17-1.62 5.9-2.15 8.27-2.89 13-4.11 26-4.59 39.3-0.018 0.516 0.04 0.666-0.542 0.967-3.76-0.023-7.78-0.248-11.6-0.428 0.03-7.82 0.331-16.3 1.35-24.1 0.635-4.84 1.69-9.95 2.45-14.9 9.89-2.92 7.88-6.31 6.34-15.2z" fill="#0C4B93"/>
<path d="m238 372c1.37 0.872 2.54 1.63 3.87 2.59-0.896 2.17-1.62 5.9-2.15 8.27-2.89 13-4.11 26-4.59 39.3-0.018 0.516 0.04 0.667-0.542 0.967 0.045-1.21-0.447-3.32-0.494-4.86-0.352-11.3-0.298-22.5 1.38-33.7 0.543-3.65 2.04-7.74 1.95-11.4 0.431-0.497 0.41-0.497 0.589-1.1z" fill="#0A3876"/>
<path d="m201 503c1.81 0.134 3 0.49 4.75 0.928-4.47 13.5-12.2 22.5-21.3 32.9-5.7-0.193-9.67-0.444-15.3-1.5l-0.396-0.085c-1.77-0.409-4.91-1.18-5.88-2.72-0.214-5.51 11.6-9.86 15.9-12.1 9.38-4.82 15.5-9.2 22.3-17.5z" fill="#0C4B93"/>
<path d="m240 436c4.78 0.317 10.1 0.415 14.9 0.601 0.315 20.9-9.08 29.1-11.9 48.3-0.219 3.4-0.333 6.97-0.464 10.4-1.36-0.228-3.05-0.356-4.44-0.503l1.96-58.7z" fill="#0A3876"/>
<path d="m209 319c2.1 0.444 2.86 0.578 4.84 1.43 1.61 1.18 2.93 2.66 2.14 4.78-1.49 1.36-4.85 0.496-6.91 0.503-2.05 0.648-6.51 2.09-7.37 4.18l0.264 0.467 0.706 0.186c3.95-1.3 8.48-1.93 12.6-1.38 10.1 3.57 2.79 10.1-4.2 11.4-2 0.568-3.81 0.833-5.27 2.25l0.108 0.437c2.21 0.67 6.62-0.068 8.84-0.708 1.33-0.357 3.58-1.1 4.85-0.964 0.612 0.895 0.348 0.921 0.243 2-0.614 6.34-11.4 9.88-16.2 6.71-10.3-8.18-12.4-31.5 5.38-31.3z" fill="#A97442"/>
<path d="m214 342c1.33-0.356 3.58-1.1 4.85-0.963 0.612 0.895 0.348 0.921 0.243 2-0.614 6.34-11.4 9.88-16.2 6.71 3.93-1.02 9.13-0.891 11.6-5.22 0.455-0.81 0.939-1.5 0.711-2.37l-1.14-0.154z" fill="#795335"/>
<path d="m209 319c2.1 0.444 2.86 0.578 4.84 1.43 1.61 1.18 2.93 2.66 2.14 4.78-1.49 1.36-4.85 0.496-6.91 0.503-2.05 0.648-6.51 2.09-7.37 4.18l0.264 0.467 0.706 0.186c-1.06 0.467-0.549 0.467-1.55 0.31-0.51-3.23 3.35-4.53 5.7-5.17 0.996-0.272 1.98-1.19 2.21-2.23 0.391-1.84 1.51-1.92 2.27-3.15l-0.583-0.191c-1.52 0.346-2.7 1.12-4.08 1.87 0.993-0.696 2.17-1.35 2.7-2.39l-0.339-0.604z" fill="#8E5E38"/>
<path d="m213 320c1.61 1.18 2.93 2.66 2.14 4.78-1.49 1.36-4.85 0.496-6.91 0.503 1.29-1.97 3.32-2.91 4.77-5.29z" fill="#795335"/>
<path d="m215 329c10.1 3.57 2.79 10.1-4.2 11.4 1.79-1.58 3.77-3.19 5.2-5.08 0.08-2.58 0.387-4.18-0.999-6.35z" fill="#8E5E38"/>
<path d="m224 343c2.28 7.32 2.98 13.4 4.28 20.9 0.952 5.43 2.31 9.47 2.56 15.1-1.95 0.66-4.85 1.73-6.77 2.2-2.21 0.065-4.52 0.049-6.73 0.068-0.334-0.339-0.806-0.839-0.942-1.28-1.05-3.39-4.46-22.7-3.74-24.7l0.756-0.271c2.41-1.77 3.62-1.34 6.76-4.25 1.96-2.48 2.82-4.81 3.82-7.78z" fill="#593831"/>
<path d="m224 343c2.28 7.32 2.98 13.4 4.28 20.9 0.952 5.43 2.31 9.47 2.56 15.1-1.95 0.66-4.85 1.73-6.77 2.2l0.457-0.637c0.092-1.33-0.972-6.62-1.24-8.34-0.639-4.19-1.22-8.4-1.76-12.6-0.261-2.18-0.227-7.45-1.36-8.83 1.96-2.48 2.82-4.81 3.82-7.78z" fill="#432A24"/>
<path d="m214 355c2.37 1.9 5.5 21.8 5.33 25.4-0.633 0.578-0.598 0.535-1.41 0.829-0.334-0.339-0.806-0.839-0.942-1.28-1.05-3.39-4.46-22.7-3.74-24.7l0.756-0.271z" fill="#F5F7FA"/>
<path d="m485 499c9.91 1.81 19.4 2.8 29.4 3.47 4.12 0.274 13.3 0.862 16.2 3.84 0.445 1.04 0.258 1.35-6e-3 2.45-3.9 5.5-7.92 6.09-13.3 9.57-2.77-1.01-7.26-2.63-9.72-4.05-8.09-3.54-15.8-9.63-22.6-15.3z" fill="#A97442"/>
<path d="m508 514c1.46-0.425 4.07-0.549 6-1.08 3.17-0.859 14-5.19 17-4.45-3.9 5.5-7.92 6.09-13.3 9.57-2.77-1.01-7.26-2.63-9.72-4.05z" fill="#8E5E38"/>
<path d="m237 502c2.39 0.166 4.79 0.264 7.19 0.3 1.16 6.21 6.4 14.8 10.7 19.2-2.47 1.34-3.48 1.77-6.15 2.47-6.02 1.1-11.8 0.948-17.8 0.801 2.77-6.54 4.6-15.8 6.06-22.8z" fill="#C6C0AF"/>
<path d="m439 395c2.2 10.4 4.47 20.6 7.54 30.8l-8.62 3.64-3.47 1.42c-0.66-2.14-1.68-4.76-2.44-6.91-0.252-0.974-0.582-2.15-0.774-3.12 3.56-9.93 4.95-15.7 7.77-25.8z" fill="#C6C0AF"/>
<path d="m432 423c1.22-1.18 1.91-2.88 2.99-3.66 0.898 0.533 1.16 1.85 1.44 2.92 0.523 2.07 1.02 4.15 1.48 6.23l-3.47 1.42c-0.66-2.14-1.68-4.76-2.44-6.91z" fill="#FBFBFB"/>
<path d="m205 309c2.48-1.13 9.71-2.64 12.2-1.88 1.06 1.14 1.19 6.67 1.33 8.56l-1.94 1.96c-0.846-0.105-1.27-0.727-1.9-1.36-1.85-0.497-4.18-0.626-6.26-1.06-0.805-0.023-1.66 0.068-2.47 0.125-1.03 0.21-0.55 0.252-1.49-0.037-1.11-1.66-1.51-3.49-0.85-5.44 0.161-0.481 0.946-0.656 1.43-0.866z" fill="#432A24"/>
<path d="m206 309 0.676 0.791 0.5 0.02c1.85 0.085 2.21 0.102 3.98 0.703l0.356 0.573c-0.63 2.44-1.73 2.41-3.28 4.19-0.805-0.023-1.66 0.068-2.47 0.125-1.03 0.21-0.55 0.252-1.49-0.037-1.11-1.66-1.51-3.49-0.85-5.44 0.161-0.481 0.946-0.656 1.43-0.866l1.16-0.053z" fill="#593831"/>
<path d="m205 309 1.16-0.053c0.12 2.73 0.228 3.72-0.245 6.4-1.03 0.21-0.55 0.252-1.49-0.037-1.11-1.66-1.51-3.49-0.85-5.44 0.161-0.481 0.946-0.656 1.43-0.866z" fill="#F5F7FA"/>
<path d="m215 162c13.6 3.65 25.3 12.1 33.2 23.7l-0.581 0.174c-0.624-0.36-0.968-0.41-1.67-0.492-2.43-0.285-4.2-2.22-5.74-3.94 0.759 1.18 3.47 5.02 3.56 6.08l-0.235 0.212c-1.73-2.45-3.98-6.22-5.86-8.38-6.37-7.37-14.5-12.3-22.7-17.4z" fill="#AFB1B3"/>
<path d="m267 309c1.01 0.217 2.96 6.47 3.49 7.83-4.11 4.22-8.56 5.16-14 6.71-0.554 0.179-2.74 0.573-3.43 0.716 4.91-6.13 8.1-9.86 14-15.2z" fill="#08458D"/>
<path d="m353 528c1.62 0.487 29.7 14.8 30.5 15.6-4.92 0.206-7.65-0.216-12.4-1.92-6.08-2.2-15.3-7.64-18.1-13.7z" fill="#8E5E38"/>
<path d="m272 307c-0.159-0.842-0.174-0.791-0.011-1.63 1.74-2.57 9.3-8.06 12.1-9.9l-0.763 3.98c-1.5 6.27-4.18 10.1-8.8 14.6-0.469-1.43-1.84-6.04-2.54-7.05z" fill="#8A211A"/>
<path d="m272 307c-0.159-0.842-0.174-0.791-0.011-1.63 1.74-2.57 9.3-8.06 12.1-9.9l-0.763 3.98-0.252 0.17c-4.4 3-5.74 5.21-11.1 7.37z" fill="#9B2818"/>
<path d="m208 294 3.93-0.931c0.862 3.49 1.3 6.61 1.84 10.2l-3.54 0.542c-1.57 0.352-2.44 0.641-4.06 0.552-0.61-0.449-0.398-0.152-0.612-0.909l0.69-0.472c0.16-0.675 0.283-1.36 0.369-2.05 0.179-1.46 0.083-2.43-0.785-3.54l-0.801-0.086-0.427 0.504c-1.03-0.275-1.59-0.554-2.13-1.35l0.291-0.609c1.67-1.04 3.32-1.32 5.24-1.82z" fill="#F5F7FA"/>
<path d="m208 294 3.93-0.931c0.862 3.49 1.3 6.61 1.84 10.2l-3.54 0.542c-0.335-2.34-0.89-8.29-2.23-9.77z" fill="#F5F7FA"/>
<path d="m382 528c0.983 0.699 3.51 9.28 4.14 11.2-2.56-1.31-5.13-2.59-7.72-3.84-2.29-1.02-5.62-2.44-7.65-3.72 3.61-1.03 7.65-2.44 11.2-3.62z" fill="#A7A6A6" fill-opacity=".741"/>
<path d="m373 570c-1.76-2.7-2.04-3.92-1.47-7.01 0.414 1.21 0.287 1.05 1.59 1.63 1.49 1.39 2.5 1.11 4.64 1.08-0.497 1.21-1.23 4.53-1.58 5.96-1.03-0.461-2.17-1.12-3.17-1.67z" fill="#8E5E38"/>
<path d="m212 485c0.073 1.49-2.66 10.4-3.4 12.1-0.917 0.47-1.06 0.232-2.3 0.082l-0.185-0.428c0.039-0.915 5.08-10.2 5.89-11.8z" fill="#F5CB3A"/>
<path d="m287 200c1.05-0.05 1.21-0.262 1.81 0.238-0.478 1.49-2.52 3.87-3.66 6.61l-0.219 0.536c-0.235 0.483-0.061 0.248-0.589 0.65l-0.451-0.482c-0.875-3.36 0.591-5.49 3.11-7.55z" fill="#C6986E"/>
<path d="m205 298 0.427-0.505 0.801 0.086c0.868 1.11 0.964 2.07 0.785 3.54-0.086 0.688-0.209 1.37-0.368 2.05l-0.691 0.472c-0.721-1.82-0.105-3.2-0.954-5.64z" fill="#F5F7FA" fill-opacity=".984"/>
<path d="m532 515c0.385 1.03 3.91 2.83 5.08 3.18 12.5 3.85 38.8 19.2 30.3 35.6-7.2 13.8-29 22.2-43.2 27-23.9 7.97-48.6 12.4-73.4 15.5-31.2 3.94-62.6 5.81-94 5.59-5.49-0.029-11-0.35-16.5-0.47-28.4-0.389-56.7-2.55-84.8-6.47-5.63-0.833-11.6-2.4-17.3-3.37-23.2-4-46.5-9.7-67.8-20.1-8.58-4.6-18.9-11.1-22.6-20.6-1.42-3.68 0.211-9.12 2.22-12.4 2.8-4.56 2.96-5.56 8.12-6.58l0.377-1.08c0.053 0.408 0.114 0.82 0.186 1.23 0.4 2.22 1.28 3.78 3.19 5.04 8.08 5.33 43.4 6.06 53.1 3.75 6.66-1.59 10.7-5.85 14.1-11.5 8.11 0.089 11.5 0.131 19.3-1.1-2.78 1.83-5.82 3.1-8.78 4.61-3.58 1.82-7.5 4.84-8.68 8.81-0.711 2.4-0.183 4.66 0.98 6.81 1.9 3.52 4.42 6.26 8.38 7.34 4.73 1.29 10.1 2.04 15 1.7 9.39-0.664 46.2-10.4 53.9-14.7 4.38-2.45 6.72-7.46 11.3-10.1l0.423-0.235c6.1 1.12 12.2 2.08 18.4 2.88 3.03 0.405 13.3 1.48 15.5 2.58 7.31 3.71 11.8 6.92 20 9.61-4.52 6.1-9.21 14.4-6.44 22.4 1.62 4.68 7.59 7.18 11.7 9.32 6.64 3.44 14.8 0.719 21.5-1.32 7.56-2.38 14.3-14.5 17.4-21.5 8.26 2.44 19.9 5.16 28.5 5.69 26.1 1.5 52.7-2.04 78.3-7.25 8.74-1.79 24.2-4.44 26.8-14.3 0.767-2.81 0.362-5.8-1.12-8.31-4.12-6.99-18.9-10.9-26.6-12.7 2.47-1.3 4.68-3.15 7.1-4.61z" fill="#A7A6A6" fill-opacity=".737"/>
</svg>
