<svg width="512" height="512" viewBox="0 0 512 512" fill="none" xmlns="http://www.w3.org/2000/svg">
<g clip-path="url(#clip0_206_902)">
<path d="M250.815 32.6249C307.305 30.3517 362.525 49.7869 405.14 86.9417C449.847 125.593 477.077 180.641 480.67 239.631C481.502 251.925 480.982 261.835 479.697 273.922C475.057 318.762 456.455 361.015 426.512 394.715C393.042 433.262 347.277 459.057 296.967 467.727C287.392 469.372 277.555 470.04 267.872 470.702C253.497 470.927 238.101 470.217 223.876 467.957C179.156 460.69 137.675 440.08 104.869 408.83C68.6434 374.407 45.3759 328.56 38.9801 279C38.1616 272.577 37.5011 266.985 37.3114 260.49C35.2051 201.854 56.7304 144.829 97.0564 102.21C137.079 59.5777 192.372 34.5539 250.815 32.6249Z" fill="#05080D"/>
<path d="M136.155 189.308C140.881 179.654 143.656 172.37 147.157 162.262C149.994 154.075 155.679 143.073 160.501 135.915C177.111 111.261 206.38 98.0872 234.786 92.79C268.363 86.0335 299.333 89.8787 331.078 102.407C338.79 105.451 348.893 110.283 355.778 114.881C358.583 116.309 362.418 119.211 365.013 121.059C382.01 133.158 404.073 157.041 411.35 176.812C408.79 177.953 400.063 181.425 401.343 184.964C403.155 186.742 404.8 185.658 406.813 184.721C422.168 177.953 440.798 191.888 434.635 208.643C434.518 208.969 434.348 209.289 434.19 209.597C429.38 220.97 418.578 221.721 409.74 228.138C408.665 228.918 408.813 231.193 410.145 231.66C411.45 232.198 413.543 231.269 415.01 231.07C414.91 241.687 412.833 252.67 411.855 263.225C410.913 273.41 409.258 283.458 407.835 293.505C405.37 310.893 402.938 321.613 389.818 334.22C386.885 337.48 383.658 340.46 380.175 343.125C374.735 347.325 370.028 349.915 364.338 353.44C354.06 359.81 344.175 364.925 332.873 369.305C330.815 370.103 327.933 371.353 325.888 372C316.3 376.343 300.89 381.118 290.898 384.435L251.03 397.89C241.385 401.195 232.268 404.22 222.762 407.963C218.448 405.958 211.673 402.088 207.2 399.718C191.852 391.578 173.683 381.83 160.111 371.023C156.125 367.748 151.819 362.808 152.321 357.295C153.554 352.678 155.216 346.668 156.031 342.003C158.006 330.695 157.844 318.743 157.991 307.268C157.983 304.69 158.147 300.67 158.519 298.16C162.492 300.68 166.505 303.135 170.557 305.525C172.344 306.508 178.754 310.365 180.446 309.943C180.714 308.518 173.201 303.25 171.97 301.998C162.297 292.168 144.718 278.533 139.149 265.74C133.859 258.21 130.668 248.008 128.013 239.279C122.434 220.944 126.635 205.619 136.155 189.308Z" fill="#F7F6F1"/>
<path d="M136.155 189.308C140.881 179.654 143.656 172.37 147.157 162.262C149.994 154.075 155.679 143.073 160.501 135.915C177.111 111.261 206.38 98.0872 234.786 92.79C268.363 86.0335 299.333 89.8787 331.078 102.407C338.79 105.451 348.893 110.283 355.778 114.881C358.583 116.309 362.418 119.211 365.013 121.059C382.01 133.158 404.073 157.041 411.35 176.812C408.79 177.953 400.063 181.425 401.343 184.964C403.155 186.742 404.8 185.658 406.813 184.721C422.168 177.953 440.798 191.888 434.635 208.643C434.518 208.969 434.348 209.289 434.19 209.597C429.38 220.97 418.578 221.721 409.74 228.138C408.665 228.918 408.813 231.193 410.145 231.66C411.45 232.198 413.543 231.269 415.01 231.07C414.91 241.687 412.833 252.67 411.855 263.225C410.913 273.41 409.258 283.458 407.835 293.505C405.37 310.893 402.938 321.613 389.818 334.22C386.885 337.48 383.658 340.46 380.175 343.125C374.735 347.325 370.028 349.915 364.338 353.44C354.06 359.81 344.175 364.925 332.873 369.305C330.815 370.103 327.933 371.353 325.888 372C326.373 370.373 326.688 366.265 326.873 364.37C327.9 353.913 328.478 341.76 327.345 331.338C326.46 324.433 325.398 320.198 323.118 313.648C325.258 313.01 327.448 312.5 329.605 311.868C340.888 308.563 352.395 301.91 361.135 294.108C370.475 285.77 378.973 268.735 379.508 256.063C383.48 230.655 361.098 196.997 331.698 203.482C324.64 205.561 318.673 210.304 311.015 210.285C302.02 210.261 294.995 203.894 288.563 198.321C284.59 194.878 280.705 191.115 276.625 187.682C256.02 170.335 217.818 165.691 195.505 181.971C193.323 185.983 190.076 189.432 186.64 192.395C185.99 193.054 185.104 193.865 184.415 194.406C171.768 204.327 167.101 197.541 155.648 191.449C152.315 189.676 148.115 188.928 144.331 188.546C141.299 188.613 139.109 188.617 136.155 189.308Z" fill="#A97645"/>
<path d="M404.382 212.007C405.147 213.248 407.145 216.488 408.847 215.62C409.94 213.733 407.985 207.928 409.472 204.515C412.17 198.333 418.187 195.362 424.665 197.77C425.73 198.166 426.102 198.585 427.132 198.231C428.79 201.67 427.057 207.898 430.402 209.95C431.19 210.434 432.417 209.485 433.147 210.401L434.19 209.597C429.38 220.97 418.577 221.721 409.74 228.138C408.665 228.918 408.812 231.193 410.145 231.66C411.45 232.198 413.542 231.269 415.01 231.07C414.91 241.687 412.832 252.67 411.855 263.225C410.912 273.41 409.257 283.458 407.835 293.505C405.37 310.893 402.937 321.613 389.817 334.22C389.88 333.208 390.667 330.308 390.945 329.088C391.685 325.78 392.377 322.46 393.025 319.135C394.027 313.853 394.487 308.633 395.255 303.325C397.052 290.863 397.83 278.32 398.8 265.773C399.517 256.998 400.392 248.234 401.42 239.488C402.38 231.055 405.227 220.337 404.382 212.007Z" fill="#885D37"/>
<path d="M186.64 192.395C181.891 194.497 178.087 196.027 172.762 194.325C168.663 193.006 165.264 190.098 163.326 186.252C157.188 174.351 161.691 156.875 173.777 150.398C182.086 145.945 192.331 149.38 196.236 157.974C200.118 166.518 198.548 173.572 195.505 181.971C193.323 185.983 190.076 189.432 186.64 192.395Z" fill="#05080D"/>
<path d="M182.116 156.67C185.467 156.218 188.556 158.552 189.037 161.898C189.519 165.245 187.213 168.355 183.871 168.866C180.486 169.384 177.328 167.043 176.841 163.653C176.353 160.264 178.722 157.127 182.116 156.67Z" fill="#F7F6F1"/>
<path d="M136.155 189.308C140.881 179.654 143.656 172.37 147.157 162.262C149.994 154.075 155.679 143.073 160.501 135.915C177.111 111.261 206.38 98.0872 234.786 92.79C268.363 86.0335 299.333 89.8787 331.078 102.407C338.79 105.451 348.893 110.283 355.778 114.881L355.673 115.237C353.988 114.568 353.63 113.907 352.12 113.062C349.47 111.582 346.783 110.157 344.07 108.797C332.718 103.029 320.758 98.5395 308.415 95.4107C306.483 94.9137 302.383 93.779 300.575 93.5607C300.433 93.6485 298.855 94.6072 298.8 94.6012C292.585 93.8975 285.765 94.5332 279.813 92.5897C278.463 92.1492 277.87 92.0867 276.503 92.513L276.338 92.1505C276.66 91.503 276.798 91.245 277.038 90.5475C276.238 89.7175 274.155 89.9447 273.178 90.5045C272.608 91.214 271.795 93.2135 270.848 93.2842C268.408 93.4665 265.928 93.5157 263.493 93.8512C260.93 94.19 258.79 95.5112 256.253 95.5627C255.123 95.5857 254.088 96.0055 253.208 96.6947L253.19 97.0037C254.058 97.2612 266.115 96.7342 268.213 96.7427C283.395 96.8047 297.96 98.3645 312.815 101.598C315.51 102.184 318.82 102.536 321.283 103.701C323.368 104.687 326.19 104.272 328.23 105.515C328.385 105.565 328.54 105.615 328.695 105.665C328.08 105.872 317.128 102.699 315.648 102.375C277.415 94.0035 236.737 94.402 201.008 111.841C196.905 113.845 179.19 124.682 177.722 128.337C171.189 132.496 165.314 138.296 162.291 145.529C160.326 149.684 157.743 154.024 156.128 158.327C153.979 164.052 152.516 169.463 150.1 175.124C149.176 177.29 144.57 187.132 144.331 188.546C141.299 188.613 139.109 188.617 136.155 189.308Z" fill="#D1A46F"/>
<path d="M406.813 184.721C422.168 177.952 440.798 191.887 434.635 208.642C434.518 208.969 434.348 209.289 434.19 209.597L433.148 210.401C432.418 209.485 431.19 210.434 430.403 209.95C427.058 207.898 428.79 201.67 427.133 198.231L426.905 197.26C426.91 196.997 426.923 196.862 426.89 196.614C426.755 195.587 426.133 194.401 425.538 193.564C420.968 187.151 409.705 190.577 407.733 188.851C406.56 187.825 406.805 186.124 406.813 184.721Z" fill="#B88655"/>
<path d="M177.722 128.337C182.643 126.11 187.999 124.354 193.518 126.108C197.168 127.268 199.788 132.352 195.311 134.571C193.978 135.231 190.514 134.412 188.917 134.544C183.666 134.492 180.248 135.308 175.519 137.559C172.576 138.976 169.822 140.753 167.318 142.85C166.307 143.702 163.802 146.493 162.61 146.188L162.291 145.529C165.314 138.296 171.189 132.496 177.722 128.337Z" fill="#241C19"/>
<path d="M404.383 212.007C403.605 209.587 403.068 207.785 403.09 205.249C403.155 198.133 409.083 192.167 416.285 192.49C420.76 192.691 423.858 194.057 426.905 197.26L427.133 198.231C426.103 198.585 425.73 198.166 424.665 197.769C418.188 195.361 412.17 198.333 409.473 204.515C407.985 207.927 409.94 213.733 408.848 215.62C407.145 216.487 405.148 213.248 404.383 212.007Z" fill="#05080D"/>
<path d="M304.378 150.599C309.795 150.325 313.075 151.205 317.608 154.294C334.845 166.045 330.37 196.91 308.79 200.37C295.045 202.077 285.955 189.759 284.958 177.237C283.975 164.93 291.208 151.774 304.378 150.599Z" fill="#05080D"/>
<path d="M300.123 158.939C303.72 158.343 307.123 160.765 307.738 164.359C308.353 167.953 305.948 171.368 302.355 172.001C298.74 172.638 295.295 170.212 294.675 166.592C294.058 162.972 296.5 159.539 300.123 158.939Z" fill="#F7F6F1"/>
<path d="M301.778 127.343C305.708 126.88 310.175 127.801 313.8 129.317C322.4 132.874 329.233 139.701 332.798 148.296C333.158 149.177 333.545 149.944 333.16 150.852C332.04 150.846 329.35 148.149 328.325 147.233C320.11 140.435 310.65 136.329 300.025 137.507C297.61 137.774 296.295 137.638 294.173 136.439C289.995 130.194 296.7 127.943 301.778 127.343Z" fill="#05080D"/>
<path d="M139.149 265.74L139.477 265.765C141.254 267.708 142.161 271.56 144.534 272.258C145.234 272.465 147.732 271.405 148.328 270.89C147.448 270.408 143.558 267.025 142.898 266.285C148.863 271.005 155.215 275.215 161.888 278.87C195.92 297.467 226.962 305.357 265.942 303.9C282.56 303.28 299.675 301.38 315.715 296.408C335.355 290.32 357.52 278.38 372.485 264.22C375.117 261.73 377.79 259.213 379.507 256.062C378.972 268.735 370.475 285.77 361.135 294.108C352.395 301.91 340.887 308.562 329.605 311.867C327.447 312.5 325.257 313.01 323.117 313.647C325.397 320.197 326.46 324.432 327.345 331.337C328.477 341.76 327.9 353.912 326.872 364.37C326.687 366.265 326.372 370.372 325.887 372C316.3 376.343 300.89 381.117 290.897 384.435L251.03 397.89C241.384 401.195 232.268 404.22 222.762 407.962C218.448 405.957 211.673 402.087 207.199 399.717C191.851 391.577 173.683 381.83 160.111 371.022C156.125 367.747 151.818 362.808 152.32 357.295C153.554 352.678 155.215 346.668 156.03 342.003C158.006 330.695 157.844 318.742 157.99 307.267C157.982 304.69 158.147 300.67 158.519 298.16C162.492 300.68 166.505 303.135 170.557 305.525C172.344 306.507 178.754 310.365 180.446 309.943C180.713 308.518 173.201 303.25 171.97 301.997C162.296 292.167 144.718 278.532 139.149 265.74Z" fill="#C4BCA6"/>
<path d="M158.519 298.16C162.492 300.68 166.505 303.135 170.557 305.525C169.782 307.235 169.1 320.322 169.051 323.067C170.03 323.397 171.499 325.21 172.361 325.945C183.271 335.232 197.787 343.417 211.301 348.067C228.998 354.16 248.86 354.59 267.258 352.522C276.545 351.45 283.58 350.42 292.568 347.742C301.01 345.245 309.143 341.795 316.805 337.455C319.13 336.16 325.473 332.057 327.345 331.337C328.478 341.76 327.9 353.912 326.873 364.37C326.688 366.265 326.373 370.372 325.888 372C316.3 376.342 300.89 381.117 290.898 384.435L251.03 397.89C241.385 401.195 232.268 404.22 222.762 407.962C218.448 405.957 211.673 402.087 207.2 399.717C191.852 391.577 173.683 381.83 160.111 371.022C156.125 367.747 151.819 362.807 152.321 357.295C153.554 352.677 155.216 346.667 156.031 342.002C158.006 330.695 157.844 318.742 157.991 307.267C157.983 304.69 158.147 300.67 158.519 298.16Z" fill="#F7F6F1"/>
<path d="M158.519 298.16C162.492 300.68 166.505 303.135 170.557 305.525C169.782 307.235 169.1 320.322 169.051 323.067C168.11 333.555 166.507 343.972 164.254 354.257C163.666 357 163.008 359.727 162.282 362.437C161.613 364.855 160.343 368.662 160.111 371.022C156.125 367.747 151.819 362.807 152.321 357.295C153.554 352.677 155.216 346.667 156.031 342.002C158.006 330.695 157.844 318.742 157.991 307.267C157.983 304.69 158.147 300.67 158.519 298.16Z" fill="#A97645"/>
<path d="M157.991 307.268C158.488 306.315 158.259 306.36 159 306.123C160.218 306.753 163.131 312.955 163.617 314.54C165.305 320.04 161.85 341.558 160.059 347.793C159.35 350.183 158.371 352.483 157.14 354.648C156.272 356.193 155.311 357.67 153.788 358.618C152.863 358.648 153.264 358.788 152.558 358.148L152.321 357.295C153.554 352.678 155.216 346.668 156.031 342.003C158.006 330.695 157.844 318.743 157.991 307.268Z" fill="#D1A46F"/>
<path d="M219.72 177.599C227.349 176.665 236.462 178.268 243.612 180.963C249.813 183.3 262.457 190.329 257.475 198.7C250.752 209.992 236.513 218.098 224.303 222.311C223.863 230.96 223.86 235.266 231.196 240.948C244.076 250.925 262.942 258.21 278.35 249.479C280.532 248.241 282.717 244.486 285.345 244.045C287.832 244.271 288 246.659 287.21 248.509C281.207 262.57 259.627 262.883 247.738 258.765C236.141 254.64 233.129 251.423 223.948 244.852C221.791 245.662 218.7 247.574 216.646 248.793C212.797 251.165 209.028 252.813 204.741 254.283C194.987 257.625 181.627 254.803 178.184 243.926C177.522 241.835 177.384 238.945 180.079 238.305C182.32 238.842 183.607 243.215 185.997 245.025C194.2 251.24 203.983 247.774 211.684 242.583C214.386 240.761 217.003 239.237 219.024 236.58C218.059 230.583 217.771 227.62 217.469 221.539C215.366 219.719 212.376 218.215 209.972 216.364C203.751 211.586 196.988 202.543 195.894 194.584C194.26 182.705 211.366 178.567 219.72 177.599Z" fill="#05080D"/>
<path d="M224.075 182.367C226.859 182.283 235.826 182.462 237.3 184.208C243.134 191.117 225.343 188.44 223.938 188.407C221.148 188.38 211.774 189.309 210.779 188.315C205.451 182.987 222.641 182.423 224.075 182.367Z" fill="#545B6E"/>
<path d="M212.533 280.31C211.131 278.775 206.672 274.473 208.896 272.635C210.141 273.433 212.858 275.363 213.947 275.915C218.766 278.365 224.462 279.782 229.813 280.145C231.756 280.292 233.706 280.298 235.65 280.165C236.796 280.085 240.351 279.375 240.882 280.277C240.453 281.275 239.911 281.502 238.959 282.047C237.899 286.255 234.253 287.883 230.378 288.908C226.459 289.945 222.139 289.597 218.656 287.432C216.389 286.025 213.15 282.99 212.533 280.31Z" fill="#05080D"/>
<path d="M212.533 280.31C218.27 284.373 224.379 285.65 231.377 284.448C233.998 283.98 236.546 283.173 238.959 282.048C237.898 286.255 234.252 287.883 230.378 288.908C226.459 289.945 222.138 289.598 218.655 287.433C216.388 286.025 213.15 282.99 212.533 280.31Z" fill="#C6C1AF"/>
<path d="M256.102 41.6151C261.992 41.3934 269.565 41.7926 275.415 42.2099C313.895 44.9561 350.88 58.2179 382.337 80.5481C427.89 112.505 458.975 161.161 468.83 215.925C476.645 260.855 469.397 307.108 448.212 347.49C443.4 356.673 437.432 365.905 431.465 374.358C428.135 366.635 430.385 363.143 431.87 355.21C432.622 351.115 433.05 346.97 433.145 342.808C433.382 330.488 430.8 319.345 422.025 310.348C419.707 307.97 416.925 306.105 414.735 303.755C415.945 298 416.61 292.435 417.425 286.623C418.71 277.93 419.842 269.213 420.822 260.48C421.98 250.27 423.43 240.028 424.015 229.752C426.962 228.454 429.667 226.738 432.417 224.998C445.732 216.574 447.742 198.846 439.165 186.243C434.625 179.572 428 177.037 420.12 175.644C412.055 155.696 396.107 135.688 379.852 121.831C345.525 92.5681 298.427 78.2764 253.635 81.6811C246.384 82.1626 239.175 83.1441 232.059 84.6184C204.047 90.1999 176.624 102.551 158.348 125.206C156.028 128.083 153.901 131.111 151.981 134.27C150.653 136.506 149.524 138.824 148.064 140.978L147.859 141.278C143.403 141.646 139.225 141.739 135.311 144.141C127.638 148.851 126.648 158.899 128.465 166.915C129.419 171.124 131.206 174.163 133.389 177.703C125.477 193.315 115.692 207.244 116.746 225.676C117.779 243.73 126.677 265.908 138.031 280.16C141.649 284.703 145.872 288.453 150.06 292.343C149.288 299.9 149.284 312.865 149.181 320.673C146.912 322.008 143.996 323.673 141.998 325.308C134.011 331.84 127.29 340.393 120.448 348.093C114.706 354.55 108.733 360.798 102.542 366.825C99.8184 369.473 92.5494 376.023 89.4167 377.885C62.7919 343.548 47.6979 301.673 46.2904 258.245C44.8009 201.974 65.9679 147.463 105.041 106.943C137.184 73.4656 179.374 51.3924 225.204 44.0744C235.995 42.3884 245.293 41.8704 256.102 41.6151Z" fill="#F7F6F1"/>
<path d="M346.783 372.705C347.243 372.645 347.068 372.66 347.553 372.842C348.69 374.727 351.985 383.39 352.988 385.842C358.088 398.315 362.77 410.32 366.988 423.122C357.865 431.237 341.213 428.625 339.045 430.875L339.073 431.46C339.903 432.015 342.57 431.887 343.623 431.912C352.883 432.15 360.125 430.237 368.575 426.83L370.1 430.935C367.49 432.837 362.2 435.535 359.285 437.105C340.883 447.007 322.363 453.105 302.058 457.542C292.468 459.682 274.865 461.672 265.135 461.615C264.678 458.17 262.315 451.125 261.335 447.51C257.75 434.295 253.505 420.742 250.04 407.53C272.34 399.457 295.543 392.617 317.853 384.477C327.585 380.925 337.468 377.297 346.783 372.705Z" fill="#E9C049"/>
<path d="M412.89 313.115C415.087 314.4 417.955 317.9 419.252 320.122C429.787 338.145 422.73 364.71 413.07 381.638C406.822 392.588 389.585 410.39 378.825 416.568C378.292 414.39 377.837 412.815 377.122 410.69C374.07 402.34 370.4 393.865 367.14 385.565C364.625 379.16 362.027 372.445 359.192 366.193C361.54 364.77 364.37 363.475 366.92 361.973C383.277 352.34 399.327 341.735 408.86 324.753C410.615 321.623 411.945 316.552 412.89 313.115Z" fill="#154286"/>
<path d="M153.69 375.69C164.878 384.275 176.709 391.99 189.079 398.767C194.023 401.465 198.985 404.132 203.963 406.765C206.923 408.337 211.15 410.477 213.852 412.34C196.523 422.237 189.888 429.512 180.183 446.677C163.093 439.33 148.18 432.045 133.2 420.742C129.86 418.222 125.796 415.387 122.816 412.487C125.875 408.775 129.184 404.575 132.347 401.002C133.593 399.667 134.884 398.005 136.188 396.575C139.298 400.147 148.193 408.357 152.822 409.095L153.007 408.907C152.201 407.145 146.414 403.1 144.476 401.14C142.043 398.682 140.404 397.277 138.173 394.307C139.609 392.357 141.567 390.047 143.113 388.127C146.557 383.992 150.344 379.81 153.69 375.69Z" fill="#ECC74A"/>
<path d="M143.113 388.127C146.032 391.97 151.936 396.175 155.164 399.63C157.92 402.58 170.89 411.027 171.815 413.717C171.383 414.22 170.742 414.487 170.072 414.467C157.236 414.082 142.371 408.925 132.347 401.002C133.593 399.667 134.884 398.005 136.188 396.575C139.298 400.147 148.193 408.357 152.822 409.095L153.007 408.907C152.201 407.145 146.414 403.1 144.476 401.14C142.043 398.682 140.404 397.277 138.173 394.307C139.609 392.357 141.567 390.047 143.113 388.127Z" fill="#D1A46F"/>
<path d="M237.299 411.478C237.418 411.5 237.746 411.68 237.872 411.745C238.81 413.693 241.325 423.728 242.073 426.363L248.73 449.558C249.753 453.173 251.25 457.935 251.965 461.538C238.385 461.39 221.985 458.705 208.805 455.735C203.355 454.655 193.328 451.558 188.247 449.543C188.498 448.913 188.8 448.278 189.115 447.675C199.937 427.038 216.343 418.518 237.299 411.478Z" fill="#17498C"/>
<path d="M146.054 332.925C146.961 332.15 147.404 331.775 148.413 331.15C148.23 332.775 147.928 336.245 147.382 337.627C143.227 348.15 141.363 354.902 145.383 366.217C140.611 372.507 135.512 378.542 130.106 384.297C125.95 379.582 124.035 374.452 122.212 368.527C121.644 365.395 121.615 363.625 121.742 360.432C123.335 358.075 128.807 352.025 130.872 349.63C135.572 344.177 140.468 337.207 146.054 332.925Z" fill="#BC3923"/>
<path d="M146.054 332.925L146.285 332.86C147.074 332.627 146.966 332.752 147.54 332.235L147.818 332.188C147.661 341.267 131.005 360.272 124.424 366.582C123.713 367.26 122.975 367.907 122.212 368.527C121.644 365.395 121.615 363.625 121.742 360.432C123.335 358.075 128.807 352.025 130.872 349.63C135.572 344.178 140.468 337.207 146.054 332.925Z" fill="#D26D4B"/>
<path d="M119.144 363.33C119.471 365.4 119.816 368.068 120.331 370.05C122.158 377.325 124.11 380.873 128.035 387.225C126.769 388.62 125.469 390.028 124.225 391.438C120.684 395.845 116.973 400.09 113.463 404.54C108.269 399.785 104.277 395.553 99.6134 390.338C97.9766 388.508 96.6669 387.008 95.1516 385.055C104.641 378.598 111.018 370.888 119.144 363.33Z" fill="#BC3923"/>
<path d="M119.144 363.33C119.471 365.4 119.816 368.068 120.331 370.05C119.249 372.098 118.975 372.54 117.095 374.048C114.296 376.98 111.797 380.603 108.795 383.29C106.792 385.083 102.15 389.34 99.6134 390.338C97.9766 388.508 96.6669 387.008 95.1516 385.055C104.641 378.598 111.018 370.888 119.144 363.33Z" fill="#D26D4B"/>
<path d="M120.331 370.05C122.158 377.325 124.11 380.873 128.035 387.225C126.769 388.62 125.468 390.028 124.225 391.438C121.243 388.035 117.335 378.843 117.095 374.048C118.975 372.54 119.249 372.098 120.331 370.05Z" fill="#962C19"/>
<path d="M423.36 378.183C423.97 378.84 425.118 380.815 425.578 381.63C423.235 385.105 419.51 389.22 416.693 392.355C406.04 404.2 394.838 413.46 382.12 422.888C381.81 423.093 381.795 423.048 381.413 423.143C380.785 422.615 380.645 421.553 380.425 420.7C383.893 418.1 389.03 415.378 392.898 412.683C403.395 405.368 411.91 397.583 418.625 386.5C420.448 383.493 421.958 381.633 423.36 378.183Z" fill="#17498C"/>
<path d="M142.417 148.813C143.259 148.751 143.32 148.73 144.193 148.862L144.364 149.185C143.831 151.174 142.877 152.567 142.131 154.478C141.042 157.268 140.119 160.172 139.16 162.994C138.805 164.04 137.691 168.242 137.167 168.824C132.891 161.875 133.169 151.328 142.417 148.813Z" fill="#885D37"/>
</g>
<defs>
<clipPath id="clip0_206_902">
<rect width="512" height="512" fill="white"/>
</clipPath>
</defs>
</svg>
