<svg viewBox="0 0 667 667" xmlns="http://www.w3.org/2000/svg">
<path d="m269 187c6.39-10.2 11.1-16.5 22.5-22.2 21.3-10.3 47.3-11.2 69.6-3.74 23.2 7.82 38.8 21.6 49.7 43.3 0.351 0.099 0.7 0.203 1.05 0.313 10.8 3.37 15.3 14.4 6.77 23.5-1.57 1.66-4.01 2.88-6.07 3.9-0.563 3.03-0.925 7.97-1.32 11.2-1.02 8.93-2.2 17.9-3.51 26.7 11.1 9.31 10 17.2 7.95 30.5-0.613 3.98 4.14 16.6 5.43 21.2 1.46 5.37 2.72 10.8 3.76 16.3 1.32 6.86 2.15 13.8 2.47 20.8 0.371 7.28 0.136 13.2 1.34 20.5 3.27 19.9 9.59 39.6 16 58.7 3.46 10.3 6.99 21 12 30.6 1.28 2.44 5.95 9.87 8.55 11 8.76 3.78 21.7 3.89 31.1 5.06 4.67 0.593 9.72 0.534 14.3 1.81 5.2 1.46 9.41 3.98 8.76 9.89-3.14 5.95-6.24 7.58-11.7 11.3 7.09 1.46 23.2 5.64 26.7 11.8 9.7 16.9-18.6 21.8-27.3 23.5-28.3 5.48-63.6 10.9-91.6 3.64-3.5-0.935-6.98-1.98-10.4-3.15-1.87 6.55-8 17-14.3 20.4-5.7 2.76-14.4 5.35-20.6 3.67-2.58-0.69-6.21-3.14-8.42-4.41-11.2-6.52-4.94-20.3 0.798-28.1-8.22-2.68-11.3-4.99-18.2-9.09-3.55-2.1-17.3-2.15-21.9-3.52-4.24-0.665-9.08-1.73-13-2.24-3.49 2.79-5.75 5.53-8.75 8.76-2.45 2.63-7.3 3.96-10.8 5-14 4.19-28.2 8.38-42.6 11.2-2.33 0.42-4.62 0.273-6.95 0.032-8.5-0.889-19-3.98-17.9-14.7 0.67-6.57 7.7-8.56 12-11.5 1.42-0.684 1.98-0.912 3.23-1.84-0.569-0.368-0.831-0.146-1.72-0.013-5.79 0.28-9.84 0.586-15.5-0.345-2.82 5.12-7.03 9.66-12.8 11.4-8.6 2.6-43.7 1.78-51.3-2.65-2.51-1.46-3.36-3.63-4-6.3 1.42-6.49 4.27-7.72 9.54-10.9 2.93-0.945 16.4-8.23 18.9-10.5 0.251-0.183 0.5-0.368 0.747-0.557 23.7-18.1 24.9-55.3 24.8-82.4l-0.19-31.4c0.012-8.28-0.026-15.1 0.924-23.2 1.85-15.8 10.3-33.8 22.7-44 5.97-4.89 10.8-7.78 16.7-13.6 8.66-8.58 13.8-16.1 23.6-23.6 0.362-4.77 0.129-9.46 0.479-14.3-6.01-5.45-10.5-11.3-13.5-18.9-4.13-10.4-5.74-19.1-1.02-29.6 1.6-3.55 3.71-7 5.18-10.6l0.162-0.4c-2.82-4.48-4.62-10.6-0.63-15.2 2.3-2.69 4.98-2.8 8.29-2.98zm98.5 337c2.09 0.981 4.66 2.27 6.77 3.07-0.681-2.25-2.74-9.39-3.76-11-0.729-0.271-0.684-0.248-1.46-0.186-3.56 1.24-7.11 2.52-10.6 3.84 2.99 1.5 6.03 2.91 9.1 4.24z" fill="#04090E"/>
<path d="m263 211c7.88-16.5 9.13-30.8 28.2-41 19.9-10.7 43.7-11.8 65-5.53 18.2 4.05 36.1 18.2 46 33.8 1.41 2.25 2.67 4.59 3.76 7-1.95 0.904-4.23 1.63-5.2 3.49l0.029 0.758c1.6 0.687 4.1-1.26 5.78-1.26 7.79 0.028 14 6.16 10.7 14-1.82 2.57-1.59 2.21-3.87 4.25-2.3 2.04-8.38 3.82-9.09 5.95 0.756 1.05 2.27 0.467 2.96 1.63 0.469 0.792-2.65 25.7-3.19 29.1-1.3 8.11-2.65 15.9-8.98 21.7-7.37 7.37-23.1 17-33.2 19.7-9.78 4.63-21.1 7.33-31.3 11.1-2.71 0.997-6.04 2.23-8.8 2.98-11.6-10.9-26.8-15.5-35.2 1.95-1.19-5.1-2.07-7.86-6.87-10.8-1.31-0.801-3.81-2.06-4.78-2.94-0.768-3.22-4.41-5.52-3.13-10 1.93-6.39 2.45-12.1 2.58-18.6-0.163-3.09 0.098-7.06 0.221-10.2 2.19 1.27 4.35 2.51 6.48 3.88 1.99 0.942 3.8 1.7 5.85 2.53-7.55-7.76-15.8-12.1-21.9-22.7-2.44-3.79-4.37-7.88-5.76-12.2-3.95-12.4-1.83-17.6 3.8-28.5z" fill="#F6F1DD"/>
<path d="m263 211c7.88-16.5 9.13-30.8 28.2-41 19.9-10.7 43.7-11.8 65-5.53 18.2 4.05 36.1 18.2 46 33.8 1.41 2.25 2.67 4.59 3.76 7-1.95 0.904-4.23 1.63-5.2 3.49l0.029 0.758c1.6 0.687 4.1-1.26 5.78-1.26 7.79 0.028 14 6.16 10.7 14-1.82 2.57-1.59 2.21-3.87 4.25-2.3 2.04-8.38 3.82-9.09 5.95 0.756 1.05 2.27 0.467 2.96 1.63 0.469 0.792-2.65 25.7-3.19 29.1-1.3 8.11-2.65 15.9-8.98 21.7-7.37 7.37-23.1 17-33.2 19.7 0.267-7.15 0.729-12.8 0.309-20l0.147-0.371c4.2-1.52 18.1-14.6 18.1-18.7l-0.801-0.225c5.06-5.25 8.87-12 9.4-19.3 0.599-2.57 0.163-6.99-0.544-9.52-2.81-10.1-12.3-19.9-23.6-17.5-4.53 0.99-9.12 4.39-13.9 3.13-5.69-1.6-9.47-6.26-13.8-9.96-8.89-7.58-20.3-10.1-31.8-8.71-4.63 0.579-8.02 2.01-11.8 4.65-1.76 2.5-3.78 5.08-6.59 6.5-5.78 5.11-10.1-0.22-15.7-2.51-1.42-0.581-2.97-0.802-4.49-1.03-0.735-0.155-2.82-0.043-3.73-0.045z" fill="#AB7746"/>
<path d="m414 216c0.733 3.16-0.094 5.73 3.3 6.26-1.82 2.57-1.59 2.21-3.87 4.25-2.3 2.04-8.38 3.82-9.09 5.95 0.756 1.05 2.27 0.467 2.96 1.63 0.469 0.792-2.65 25.7-3.19 29.1-1.3 8.11-2.65 15.9-8.98 21.7-0.293-0.954 2.34-16.7 2.65-19.3 1.12-9.32 1.45-18.7 2.62-28 0.567-4.5 1.71-8.9 2.23-13.4 0.808 0.665 0.365 0.503 1.36 0.567 1.17-1.58-0.602-5.13 2.13-7.36 2.66-2.17 4.6-1.44 7.88-1.38z" fill="#865A36"/>
<path d="m287 214c-18.8 1.28-12.7-26.5 1.73-23.7 4.85 0.94 7.43 8.23 6.2 12.6-0.444 1.57-0.773 3-1.34 4.66-1.76 2.5-3.78 5.08-6.59 6.5z" fill="#04090E"/>
<path d="m286 195c1.62-0.66 3.47 0.112 4.14 1.73s-0.087 3.47-1.7 4.16c-1.63 0.691-3.51-0.077-4.19-1.71s0.103-3.51 1.74-4.18z" fill="#F6F1DD"/>
<path d="m263 211c7.88-16.5 9.13-30.8 28.2-41 19.9-10.7 43.7-11.8 65-5.53l-0.316 0.587c-17.1-4.69-31.5-5.26-48.8-0.699-1.95 0.513-10.3 3.13-11.5 4.41 0.381 1.04 0.399 1.34 1.27 2.04 1.17-0.139 0.63-0.184 1.51-0.564 12.9-5.6 27.9-7.32 41.8-5.99 3.53 0.335 10.7 2.17 13.5 2.14-0.583 0.295-16.6-2.31-20.6-2.22-13.3 0.298-27.2 2.1-38.9 8.71-2.42 1.37-7.57 4.54-8.96 6.84-4.47 2.72-7 5.33-9.23 10.1-3.43 5.23-5.37 15-8.87 20.5-0.312 0.489-0.223 0.294-0.34 0.829-0.735-0.155-2.82-0.043-3.73-0.045z" fill="#D29F60"/>
<path d="m286 180c3.21-0.752 8.29-2.23 9.41 2.09-0.705 2.95-7.12 1.63-10.3 2.88-2.51 0.987-7.03 4.94-8.34 5.11 2.23-4.75 4.76-7.36 9.23-10.1z" fill="#271914"/>
<path d="m403 224c-4.27-9.77 5.72-14.6 11.4-8.17-3.28-0.07-5.22-0.797-7.88 1.38-2.73 2.23-0.958 5.78-2.13 7.36-0.99-0.064-0.547 0.098-1.36-0.567z" fill="#0F0C09"/>
<path d="m349 192c6.1-0.53 10.6 2.18 12.7 8.03 1.31 3.58 1.1 7.54-0.576 11-1.69 3.42-3.94 5.07-7.41 6.32-13.7 3.09-19.8-20.1-4.71-25.3z" fill="#04090E"/>
<path d="m347 196c1.73-0.698 3.7 0.131 4.42 1.86 0.713 1.73-0.098 3.71-1.82 4.44-1.74 0.739-3.76-0.085-4.48-1.83-0.723-1.75 0.118-3.75 1.88-4.46z" fill="#F6F1DD"/>
<path d="m348 180c4.76-0.229 7.82 0.517 11.8 3.6 2 1.57 5.07 5.28 5.32 7.74l-0.443 0.16-1.32-0.916c-2.82-2.06-6.03-4.22-9.51-4.95-3.39-0.707-5.85 0.545-8.9-1.44-1.37-2.27 1.3-3.57 3.09-4.2z" fill="#0F0C09"/>
<path d="m265 252c1.69-0.052 5.84 2.72 7.53 3.76 34.6 21.4 86.5 22.1 116-9.51-0.534 7.38-4.34 14.1-9.4 19.3l0.801 0.225c-0.048 4.06-13.9 17.1-18.1 18.7l-0.147 0.371c0.421 7.19-0.042 12.9-0.309 20-9.78 4.63-21.1 7.33-31.3 11.1-2.71 0.997-6.04 2.23-8.8 2.98-11.6-10.9-26.8-15.5-35.2 1.95-1.19-5.1-2.07-7.86-6.87-10.8-1.31-0.801-3.81-2.06-4.78-2.94-0.768-3.22-4.41-5.52-3.13-10 1.93-6.39 2.45-12.1 2.58-18.6-0.163-3.09 0.098-7.06 0.221-10.2 2.19 1.27 4.35 2.51 6.48 3.88 1.99 0.942 3.8 1.7 5.85 2.53-7.55-7.76-15.8-12.1-21.9-22.7z" fill="#C4C1B2"/>
<path d="m275 268c2.19 1.27 4.35 2.51 6.48 3.88-0.176 0.188-0.351 0.376-0.527 0.564-0.076 3.06-0.704 8.26-0.772 11.1l0.634-2.22c2.96 2.01 5.89 4.2 8.94 6.04 22.7 13.7 50.7 10.6 72.9-2.82 0.421 7.19-0.042 12.9-0.309 20-9.78 4.63-21.1 7.33-31.3 11.1-2.71 0.997-6.04 2.23-8.8 2.98-11.6-10.9-26.8-15.5-35.2 1.95-1.19-5.1-2.07-7.86-6.87-10.8-1.31-0.801-3.81-2.06-4.78-2.94-0.768-3.22-4.41-5.52-3.13-10 1.93-6.39 2.45-12.1 2.58-18.6-0.163-3.09 0.098-7.06 0.221-10.2z" fill="#F6F1DD"/>
<path d="m275 268c2.19 1.27 4.35 2.51 6.48 3.88-0.176 0.188-0.351 0.376-0.527 0.564-0.076 3.06-0.704 8.26-0.772 11.1-0.951 7.74-2.36 15.9-4.86 23.3-0.768-3.22-4.41-5.52-3.13-10 1.93-6.39 2.45-12.1 2.58-18.6-0.163-3.09 0.098-7.06 0.221-10.2z" fill="#AB7746"/>
<path d="m275 271c0.373 0.65 2.38 4.13 2.42 4.55 0.439 4.67 0.011 17.8-4.02 20.8-0.964 0.138-0.511 0.229-1.4-0.103 1.93-6.39 2.45-12.1 2.58-18.6 0.513-0.911 0.395-5.22 0.41-6.56z" fill="#D29F60"/>
<path d="m380 265 0.801 0.225c-0.048 4.06-13.9 17.1-18.1 18.7-0.73-3.44-1.14-5.5-2.22-8.93 7.69-1.86 13.6-4.52 19.5-9.96z" fill="#865A36"/>
<path d="m305 206c4.58-0.455 10.3-0.141 14.6 1.67 17.4 7.44-2.66 18.1-10.7 21.1 0.091 2.75 0.159 3.79 0.692 6.46 5.26 5.56 12.8 9.52 20.6 9.16 4.24-0.198 7.19-2.31 10.5-4.6l0.841 0.26 0.303 0.719c-1.39 7.85-12.7 7.89-18.8 7.02-6.24-1.78-9.12-3.84-14.3-7.56-5.27 2.66-10.8 6.58-17.1 5.08-3.04-0.73-7.4-4.34-6.42-7.83 3.18-2.12 4.35 11.8 21.1-1.49-0.668-2.82-0.849-4.91-1.05-7.79-10.1-6.81-18.4-18.9-0.457-22.2z" fill="#04090E"/>
<path d="m307 208c2.2-0.069 7.37-0.395 8.18 2.14l-0.559 0.615c-1.64 0.717-3.46 0.377-5.32 0.256-1.78-6e-3 -7.1 0.42-8.13-0.802 0.811-1.89 4.05-2.02 5.82-2.21z" fill="#F5F7FA"/>
<path d="m303 259c-0.978-0.98-2.58-2.45-2.82-3.8l0.281-0.276c0.727 0.253 3.42 1.4 4.08 1.88 2.28 1.67 10.6 0.906 12 1.7-0.531 0.908-0.25 0.498-1.35 1.11-0.655 1.91-1.3 2.18-2.97 3.27-2.06 0.193-3.32 0.192-5.37 0.165-2.1-1.26-3.25-1.65-3.86-4.04z" fill="#0F0C09"/>
<path d="m303 259c4.66 2.24 7.34 2.1 12.2 0.607-0.655 1.91-1.3 2.18-2.97 3.27-2.06 0.193-3.32 0.192-5.37 0.165-2.1-1.26-3.25-1.65-3.86-4.04z" fill="#C4C1B2"/>
<path d="m262 364 3.82 0.319c8.59 0.297 9.58 3.59 16 6.34-3.68 27.2-4 99.4 7.05 123 7.94 9.16 13.3 8.51 24.8 10.8 6.5 1.33 13.4 3.42 19.2 6.62 1.2 0.654 2.96 1.46 4.26 1.92l4.66 8.12c-18.5-3.15-36.5-3.77-53.1-13.6-1.8-1.07-6.95-5.94-8.45-5.81 1.6 4.79 9.65 10.2 14.1 12.4 3.13 1.57 6.36 2.94 9.67 4.09-1.36 1.53-6.37 7.56-7.61 8.2-7.78 3.95-18.4 6.04-26.8 8.46-4.12 1.19-8.45 2.55-12.3 3.43-2.58 0.655-12.9 3.41-14.9 2.15-0.541-1.21-0.421-0.58-0.274-1.97-0.882-1.55-1.14-2.76-1.61-4.46l-1.38 1.4c-0.965 1.61-2.01 3.3-2.93 4.92-2.62-0.567-5.59-0.899-7.21-3.2 1.17-5.53 6.97-7.42 11.6-9.56 1.6-0.801 2.07-0.951 3.35-2.2-7.42-3.18-15.2 6.9-16.9 7.1-3.34-6.54 20.5-13.6 24.8-14 1.41-0.325 2.52-0.478 3.94-0.674 2.97 0.372 11 3.25 12.7 1.22l-0.127-0.557c-1.34-0.815-2.56-1.2-4.06-1.58-9.99-2.55-20.7-14.7-23.9-24.1-5.3-15.6 1.76-33.1 7.8-47.9 0.445 2.72 0.952 5.42 1.52 8.12 0.374 1.03 0.309 1.04 1.04 1.83l0.516-0.195c-0.605-6.6-0.779-11.2-0.753-17.8-0.639-19.3 3.11-39.6 7.79-58.2 0.919-3.66 2.37-11.1 3.85-14.3z" fill="#9D6B3E"/>
<path d="m266 365c8.59 0.297 9.58 3.59 16 6.34-3.68 27.2-4 99.4 7.05 123-0.097-3e-3 -0.193-3e-3 -0.289-7e-3 -16.2-7.88-25.6-26.2-28.2-43.1-0.75-4.71-1.82-9.61-2.04-14.4-1.08-23.8 3.37-48 7.46-71.4z" fill="#F6F1DD"/>
<path d="m252 518c1.41-0.326 2.52-0.479 3.94-0.675 0.176 0.323 0.392 0.717 0.647 1.18 2.17 0.938 5.38 1.91 7.54 2.63 4.26 1.42 8.51 0.195 11.7 3.78 1.02 3.74-6.97 4.45-9.5 5.77-5.13 2.68-8.61 3.7-14.1 4.82 2.28 1.92 3.07 0.596 5.27 2.27-2.58 0.654-12.9 3.41-14.9 2.15-0.541-1.21-0.421-0.58-0.274-1.97-0.882-1.55-1.14-2.76-1.61-4.46l-1.38 1.4c-0.965 1.61-2.01 3.3-2.93 4.92-2.62-0.567-5.59-0.899-7.21-3.2 1.17-5.53 6.97-7.42 11.6-9.56 1.6-0.801 2.07-0.951 3.35-2.2-7.42-3.18-15.2 6.9-16.9 7.1-3.34-6.54 20.5-13.6 24.8-14z" fill="#AB7746"/>
<path d="m241 528c1.21 2.37 1.55 2.86 3.85 4.14-1.53 0.795-2.52 1.27-3.93 2.29l-1.38 1.4c-0.965 1.61-2.01 3.3-2.93 4.92-2.62-0.567-5.59-0.899-7.21-3.2 1.17-5.53 6.97-7.42 11.6-9.56z" fill="#AB7746"/>
<path d="m235 537c1.74-1.16 2.32-1.83 4.33-1.89-0.965 1.61-2.01 3.3-2.93 4.92-2.62-0.567-5.59-0.899-7.21-3.2 2.32-0.554 3.52-0.248 5.81 0.166z" fill="#865A36"/>
<path d="m244 525c-7.42-3.18-15.2 6.9-16.9 7.1-3.34-6.54 20.5-13.6 24.8-14 1.43 0.058 2.19-0.046 3.41 0.602l0.064 0.482c-2.92 2.62-8.62 2.11-10.9 5.4-0.184 0.27-0.219 0.244-0.521 0.387z" fill="#B78050"/>
<path d="m252 536c2.28 1.92 3.07 0.596 5.27 2.27-2.58 0.655-12.9 3.41-14.9 2.15-0.542-1.21-0.421-0.58-0.274-1.97 1.02-1.14 1.53-1.55 2.73-2.54-0.259 0.658-0.368 1.12-0.79 1.66 0.901-0.04 0.926-0.121 1.71-0.46 1.74-0.759 4.33-0.912 6.29-1.12z" fill="#865A36"/>
<path d="m245 532c2.93-1.03 6.72-2.69 9.72-2.38l0.202 0.42c-1.36 1.64-6.72 3.83-9.51 6.17-1.2 0.987-1.71 1.39-2.73 2.54-0.882-1.55-1.14-2.76-1.61-4.46 1.41-1.02 2.4-1.5 3.93-2.29z" fill="#0F0C09"/>
<path d="m251 437c-0.639-19.3 3.11-39.6 7.79-58.2 0.919-3.66 2.37-11.1 3.85-14.3 0.681 0.499 1.64 0.922 1.58 1.92-0.274 4.58-1.96 9.13-2.66 13.6-1.76 11.4-4.18 22.7-5.91 34-0.833 5.45-0.771 11.3-1.11 16.8-0.333 4.72-0.745 9.43-1.24 14.1-0.113 1.14-0.156 3.98-0.485 4.77l-0.557-0.071c-1.29-2.2-0.396-9.99-1.26-12.7z" fill="#D29F60"/>
<path d="m240 493c-5.3-15.6 1.76-33.1 7.8-47.9 0.445 2.72 0.952 5.42 1.52 8.12-5.62 10.9-7.88 20.8-7.83 33 8e-3 1.79 0.344 5.28-0.76 6.68l-0.729 0.023z" fill="#D29F60"/>
<path d="m369 446c10.3-3.45 20.5-7.09 30.6-10.9 5.66-2.2 11.3-4.74 16.9-6.9 4.15 10.9 8.64 21.6 13.4 32.3 3.1 6.76 6.54 13.4 9.62 20.1-10.7 4.53-21.5 8.96-32.4 13.3-4.99 1.96-10.9 4.42-16 5.96-5.26 1.56-11.2 4.23-16.7 6.06-2.29-7.31-4.96-14.6-7.16-21.9-3.76-10.3-7.56-23.3-11-33.9 2.01-0.678 3.88-1.11 5.94-1.6 1.47 3.51 3.2 12.5 4.1 16.6 0.961 3.16 2 6.3 3.1 9.41l1.36 0.094c-2.01-8.55-4.4-18.7-5.13-27.4 1.19-0.511 2.04-0.755 3.28-1.13z" fill="#F6F1DD"/>
<path d="m366 447c1.19-0.511 2.04-0.755 3.28-1.13 3.22 15.1 14.1 40.8 22.2 53.8-5.26 1.56-11.2 4.23-16.7 6.06-2.29-7.31-4.96-14.6-7.16-21.9-3.76-10.3-7.56-23.3-11-33.9 2.01-0.678 3.88-1.11 5.94-1.6 1.47 3.51 3.2 12.5 4.1 16.6 0.961 3.16 2 6.3 3.1 9.41l1.36 0.094c-2.01-8.55-4.4-18.7-5.13-27.4z" fill="#C4C1B2"/>
<path d="m356 450c2.01-0.678 3.88-1.11 5.94-1.6 1.47 3.51 3.2 12.5 4.1 16.6-0.238 4.4 0.316 8.07 1.06 12.4 0.26 1.51 1.17 5.3 0.286 6.45l-0.417 0.091c-3.76-10.3-7.56-23.3-11-33.9z" fill="#F6F1DD"/>
<path d="m371 475c0.313 1.47 0.772 3.36 0.951 4.81-0.788-1.6-1.65-3.25-2.32-4.9l1.36 0.094z" fill="#0F0C09"/>
<path d="m395 506c9.34-3.82 18.9-7.25 28.4-11.1 6.13-2.52 13.8-5.98 19.8-8.14 4.55 9.8 11.4 21.6 17.4 30.7 3.78 5.7 8.58 11.5 12.6 17.1 2.35 2.76 4.53 5.32 6.77 8.19-10.7 0.469-21.7 1.69-32.5 2.06-20.7 0.701-45.5-5.69-64.2-14.4-2.36-6.1-4.6-11.9-6.45-18.1 2.38-0.593 15.8-5.19 18.3-6.18z" fill="#C13925"/>
<path d="m377 513c2.38-0.593 15.8-5.19 18.3-6.18 1.15 3.26 3.28 5.72 5.41 8.38 6.43 8.23 13.9 13.9 23.2 18.5 12.1 5.99 25.3 4.49 38.2 3.14 2.34-0.244 9.75-0.355 11.3-1.5 2.35 2.76 4.53 5.32 6.77 8.19-10.7 0.469-21.7 1.69-32.5 2.06-20.7 0.701-45.5-5.69-64.2-14.4-2.36-6.1-4.6-11.9-6.45-18.1z" fill="#9A2A17"/>
<path d="m331 393c0.619 2.51 1.82 5.61 2.54 8.27 4.04 15 9.71 29.4 14.2 44.2-7.3 1.74-19.8 5.52-27 7.86-0.958 0.349-1.02 0.319-2.05 0.407l-6.74 1.78c-8.02 1.68-16.7 3.86-24.7 5.81-2.37-18.5-2.58-36.6-2.61-55.2 3.93-0.758 12-3.1 16.1-4.25 9.8-2.79 20.7-5.69 30.3-8.92z" fill="#C13925"/>
<path d="m312 456c-1.26-5.85-5.77-42.1-1.35-44.6l0.559 0.368c1.6 3.72 2.78 14 3.96 18.4 0.306 1.14 1.59 6.4 1.71 7.43-0.973 4.46 1.54 12 1.86 16.7l-6.74 1.78z" fill="#9A2A17"/>
<path d="m318 454c-0.321-4.64-2.83-12.2-1.86-16.7 0.574 2.06 2.98 15.6 3.68 16.1 0.068 0.055 0.153 0.085 0.23 0.127-0.958 0.349-1.02 0.319-2.05 0.407z" fill="#271914"/>
<path d="m396 368c0.629 1.49 1.13 2.98 1.67 4.49 5.82 16.3 10.9 32.7 16.8 48.9-5.64 2.59-12 4.82-17.9 7.09-10.4 4.08-21.3 8.03-32 11.3-0.944-4.78-0.974-11.2-2.12-17.3-1.22 1.64-0.371 7.82-0.769 11.1-0.755-2.41-1.24-4.02-1.72-6.48-1.93-10-2.87-20.5-4.21-30.6-0.495-3.72-0.905-7.78-1.01-11.5 3.29-0.991 6.36-2.56 9.57-3.63 10.9-3.62 21.2-9.14 31.7-13.3z" fill="#114B8E"/>
<path d="m360 427 0.896-0.544c0.742-0.96 0.638-6.82 0.996-9 0.388 1.35 0.678 3.57 0.6 4.97-1.22 1.64-0.372 7.82-0.769 11.1-0.755-2.41-1.24-4.02-1.72-6.48z" fill="#082F5E"/>
<path d="m451 485-0.326-0.808c0.889-0.896 6.79-3.57 8.41-4.34 10.8 12.4 20.7 20.3 35.5 27.6 10.5 3.65 30.1 6.9 36.8 14.7 0.916 1.54 1.19 3.38 0.772 5.13-1.26 5.24-8.27 6.62-12.7 7.86-5.23 1.47-10.5 2.93-15.8 3.85-4.65 0.844-9.5 1.17-14.1 1.91-2.1-2.16-4.11-4.16-5.98-6.54-9.41-11.1-17-21.1-24-33.9-2.85-5.22-6.14-9.91-8.46-15.5z" fill="#114B8E"/>
<path d="m531 523c0.916 1.54 1.19 3.38 0.772 5.13-1.26 5.24-8.27 6.62-12.7 7.86-5.23 1.47-10.5 2.93-15.8 3.85-4.65 0.844-9.5 1.17-14.1 1.91-2.1-2.16-4.11-4.16-5.98-6.54 2.63-0.811 10.2-1.28 13.1-1.96 6.86-1.66 30.3-6.56 34.8-10.3z" fill="#0E3977"/>
<path d="m451 485-0.326-0.808c0.889-0.896 6.79-3.57 8.41-4.34 10.8 12.4 20.7 20.3 35.5 27.6-0.439 0.133-0.889 0.244-1.34 0.332-9.43 1.84-23.8-5.94-30.5-12.3-2.27-2.18-9.3-11.1-11.7-10.5z" fill="#0E3977"/>
<path d="m323 460c9.14-2.4 17.6-4.36 26.4-7.71 1.89 4.52 3.56 10.8 4.98 15.6 3.95 13.3 9.72 27 13.3 40.3-4.54 1.75-13 4.62-17.7 5.67-3.16-1.7-7.41-3.54-10.3-5.37-2.94-1.94-4.79-5.13-6.33-8.24-1.68-3.44-3.17-6.97-4.44-10.6-1.45-4.16-7.74-26.5-6.85-29.2l0.882-0.423z" fill="#114B8E"/>
<path d="m340 509c-2.94-1.94-4.79-5.13-6.33-8.24-1.68-3.44-3.17-6.97-4.44-10.6-1.45-4.16-7.74-26.5-6.85-29.2l0.882-0.423c-0.218 0.957 7.61 24.3 8.74 27.2 1.72 4.3 9.75 16.8 8 21.3z" fill="#0E3977"/>
<path d="m339 333c7.62 0.83 27.4 9.57 34.2 14.3 2.45 1.7 7.55 6.48 9.69 7.67 0.997 1.05 1.66 1.82 2.85 2.69l0.521-0.117c2.08-4.93-5.82-14.7-9.51-17.8 3.01-0.752 5.94-1.87 9.06-2.6 2.48 7.02 6.29 16.9 7.85 24-13.4 5.9-26.8 11.6-40.4 17-1.93-15.8-5.08-31.8-14.2-45.1z" fill="#EEC846"/>
<path d="m373 305c2.92 6.97 6.23 15.2 8.73 22.3 1.38 4.97 0.198 5.45-4.75 6.35l-0.358 0.062-1.27 0.664 0.147 0.42 1.34 0.577c2.81-0.577 4.16-1.18 6.82-2.32 0.612 1.21 1.52 2.88 1.97 4.11-3.12 0.733-6.05 1.85-9.06 2.6 3.69 3.08 11.6 12.8 9.51 17.8l-0.521 0.117c-1.19-0.87-1.85-1.64-2.85-2.69-0.153-3.34-4.73-7.43-7.16-9.5-9.49-8.08-21.5-13-33.3-16.7-10.5-2.21-7.75 1.91-15.7-7.03 5.08-2.01 12.5-4.24 17.9-6.01 10.3-3.38 18.6-6.38 28.6-10.7z" fill="#EEC846"/>
<path d="m382 328c1.38 4.97 0.198 5.45-4.75 6.35l-0.358 0.062-1.27 0.664 0.147 0.42 1.34 0.577c2.81-0.577 4.16-1.18 6.82-2.32 0.612 1.21 1.52 2.88 1.97 4.11-3.12 0.733-6.05 1.85-9.06 2.6 3.69 3.08 11.6 12.8 9.51 17.8l-0.521 0.117c-1.19-0.87-1.85-1.64-2.85-2.69-0.153-3.34-4.73-7.43-7.16-9.5-9.49-8.08-21.5-13-33.3-16.7 0.652-0.016 1-0.176 1.54-0.205 7.62-0.43 14.9 1.05 22.2 3.23 1.83 0.55 4.65 0.342 6.01 1.64 4.84-2.96 4.92-1.86 9.73-6.12z" fill="#D29F60"/>
<path d="m377 336c-1.2 0.088-2.4 0.15-3.61 0.189-1.43 0.036-3.2 0.156-4.29-0.88 1.39-1.03 5.8-0.912 7.68-0.97l-1.27 0.664 0.147 0.42 1.34 0.577z" fill="#271914"/>
<path d="m311 464c2.76-0.772 5.52-1.52 8.29-2.24 1.8 15 5.4 30.6 11.9 44.2-4.64-1.79-8.3-3.29-13.1-4.64-5.68-1.22-18-3.13-22.3-6.23-7.61-5.41-7.36-17.4-8.6-25.4 7.12-1.42 16.5-3.97 23.8-5.66z" fill="#114B8E"/>
<path d="m311 464c2.76-0.772 5.52-1.52 8.29-2.24 1.8 15 5.4 30.6 11.9 44.2-4.64-1.79-8.3-3.29-13.1-4.64 0.393-0.974-1.08-5.75-1.65-6.98-3.85-8.35-2.65-22.6-5.51-30.3z" fill="#0E3977"/>
<path d="m294 316c7.84-5.72 12.5-4.1 20 1.06 6.16 4.23 10.9 9.36 16.1 14.6 3.1 3.16 7.89 7.34 9.63 11.4 1.53 3.38 2.69 7.53 3.76 11.1-1.21 3.58-0.889 7.9-0.847 11.7-1.7-1.4-12.8-7.55-14.5-7.54-11.5-1.74-14.6-9.15-13.4-19.8-4.3-4.51-6.99-10.2-13.2-12.9-5.02-2.2-8.4 4.6-12.2 3.03-1.26-1.48-1.04-2.99-9e-3 -4.57 1.67-2.78 4.91-4.98 8.02-5.76 5.23-1.31 8.32-0.075 12.7 2.42l0.244 0.11c2.3 1.06 5.06 3.23 7.34 2.9-2.46-3.96-8.34-7.44-12.9-8.45-3.92-0.871-6.92-0.378-10.7 0.674z" fill="#AB7746"/>
<path d="m294 316c7.84-5.72 12.5-4.1 20 1.06 6.16 4.23 10.9 9.36 16.1 14.6 3.1 3.16 7.89 7.34 9.63 11.4-0.417 0.58-0.231 0.372-0.918 0.733-3.04-0.573-13.9-14-16.8-16.7-1.17-1.08-3.07-2.34-4.38-3.31-2.46-3.96-8.34-7.44-12.9-8.45-3.92-0.871-6.92-0.378-10.7 0.674z" fill="#D29F60"/>
<path d="m289 324c1.67-2.78 4.91-4.98 8.02-5.76 5.23-1.31 8.32-0.075 12.7 2.42-0.648 0.342-0.601 0.321-1.34 0.348l-0.034 0.117c-4.06-0.66-6.06-1.47-10.3-1.59-1.16 0.619-6.54 3.62-8.08 4.71-0.071 0.051-0.752-0.167-0.92-0.252z" fill="#D29F60"/>
<path d="m300 387c0.623-1.3 0.119-3.75 0.293-5.35 0.321-2.96 1.84-12.4 3.13-14.6 1.79-1.24 4.97-0.586 7.2-0.374 3.26 0.348 6.31 0.658 9.55 1.22l1.7 0.131c1.32 0.423 1.81 0.361 2.51 1.79 1.11 2.28 1.63 5.51 2.16 8.02 0.736 3.17 1.52 6.01 2.41 9.12-14.2 3.43-29.6 8.75-44.1 12.5 0.128-4.09 1.09-25.6 2.53-28.4 1.29-0.345 1.38-0.032 2.92 0.437 3.17-1.06 5.99-2.15 8.94-3.75-0.474 4.82-1.09 9.91-0.981 14.8 0.05 2.24 0.262 2.9 1.72 4.5z" fill="#114B8E"/>
<path d="m300 387c0.622-1.3 0.118-3.75 0.292-5.35 0.321-2.96 1.84-12.4 3.13-14.6 1.79-1.24 4.97-0.586 7.2-0.374 3.26 0.348 6.31 0.658 9.55 1.22l1.7 0.131c1.32 0.423 1.81 0.361 2.51 1.79 1.11 2.28 1.63 5.51 2.16 8.02-3.43 0.626-21.8 3.38-24 4.32-1.54 2.03-1.61 2.44-1.92 4.95l-0.421 0.169-0.201-0.27z" fill="#0E3977"/>
<path d="m300 387c0.622-1.3 0.118-3.75 0.292-5.35 0.321-2.96 1.84-12.4 3.13-14.6 1.79-1.24 4.97-0.586 7.2-0.374l-2.11 0.329c-0.323 0.606-0.382 0.733-0.513 1.42-0.695 3.67-5.14 10.6-5.46 13.7-1.54 2.03-1.61 2.44-1.92 4.95l-0.421 0.169-0.201-0.27z" fill="#082F5E"/>
<path d="m262 320c4.38-2.22 9.06-4.6 14.1-2.95 3.19 1.08 5.84 3.35 7.41 6.33 0.578 1.45 0.865 2.63 0.381 4.13-2.7 3.1-8.11-1.9-10.7-3.7-7.03 2.73-8.52 7.66-13.4 12.2 0.059 5.86 0.273 10.9-4.2 15.6-3.15 3.3-6.2 3.71-10.2 5.18-1.66 0.772-8.46 1.51-10.6 1.8-1.82-4.15-1.88-5.76-3.17-9.7 0.696-2.48 1.43-5.56 2.49-7.85 2.3-5.79 5.56-7.71 10-11.6 3.85-3.41 7.6-6.85 11.6-10.1 1 1.04 0.998 1.13 1.46 2.54 1.82-0.046 3.2-0.983 4.89-1.83z" fill="#AB7746"/>
<path d="m255 319c1 1.04 0.998 1.13 1.46 2.54l0.807 0.569-0.058 0.513c-2.24 1.54-5.04 3.21-7.39 4.92-2.96 2.15-13.7 13.9-16.1 13.7l-0.302-0.43c2.3-5.79 5.56-7.71 10-11.6 3.85-3.41 7.6-6.85 11.6-10.1z" fill="#D29F60"/>
<path d="m262 320c4.38-2.22 9.06-4.6 14.1-2.95 3.19 1.08 5.84 3.35 7.41 6.33l-0.568 0.596c-2.7 0.193-5.03-4.65-8.35-5.58-3.26-0.913-10.7 3.48-12.6 1.6z" fill="#D29F60"/>
<path d="m240 376c2.56 1.14 10.7 2.04 14.2 2.81-3.08 11.2-5.36 22.7-6.82 34.2-0.57 4.73-0.559 10-1.25 14.5-0.947 0.577-0.989 0.355-2.33 0.326-4.02-0.375-8.77-0.508-12.8-0.716-0.428-3.91-0.475-9.58-0.773-13.7-0.66-9.14-1.2-18.5-1.21-27.6 3.48-2.33 7.97-6.76 11-9.79z" fill="#C4C1B2"/>
<path d="m390 330c6.23-3.08 13.3-7.89 17.3-13.6 1.73-2.46 3.43-5.12 5.22-7.46 3.23 8.29 5.25 17.1 7.28 25.8 0.938 4.02 1.22 8.46 2.33 12.6-3.02 1.46-6.47 2.97-9.38 4.52-3.28 2.39-8.83 4.21-12.8 6.67-0.456-3.26-2.65-8.59-3.84-11.8-1.43-4.02-2.84-8.05-4.22-12.1-0.605-1.47-1.28-3.22-1.93-4.64z" fill="#0E3977"/>
<path d="m392 334c0.222-0.3 0.447-0.596 0.671-0.892 9.88-1.49 13.2-7.52 16.7 5.52 0.778 2.9 2.51 9.58 3.51 12.6-3.28 2.39-8.83 4.21-12.8 6.67-0.456-3.26-2.65-8.59-3.84-11.8-1.43-4.02-2.84-8.05-4.22-12.1z" fill="#114B8E"/>
<path d="m379 302c7.14-2.61 20.7-12.3 24.6-19 1.42-2.42 2.28-6.06 3.75-7.01 1.2 0.493 1.07 0.735 1.99 1.96 3.69 6.82 3.88 13.6 1.78 21-3.74 13.2-10.9 21-21.6 29.2-0.674-2.09-1.38-3.63-2.27-5.63l-8.25-20.6z" fill="#114B8E"/>
<path d="m409 278c3.69 6.82 3.88 13.6 1.78 21-3.74 13.2-10.9 21-21.6 29.2-0.674-2.09-1.38-3.63-2.27-5.63 4.69-3.16 12.8-13.7 15.1-18.7 3.47-7.54 5.93-15.9 6.49-24.1-3e-3 0.05 0.528-1.72 0.551-1.8z" fill="#0E3977"/>
<path d="m211 376 13.6 0.381c-0.424 16.7 0.672 33.4 1.57 50.1 0.12 2.23 0.214 4.46 0.186 6.7-4.54 0.019-9.58-0.339-14.1-0.613-0.707-19.9-1.48-36.6-1.26-56.6z" fill="#EEC846"/>
<path d="m378 533c6.57 3.19 13.1 6.34 20.1 8.46 0.856 0.303 1.68 0.55 2.48 0.964-2.87 6.92-6.41 16.1-14.6 17.8-0.075-1.97-0.218-4.99 0.296-6.89 0.293-3.22 0.801-6.41 1.52-9.55-4.32 4.67-5.12 8.54-6.69 14.7 0.065 0.928 0.189 2.21 0.189 3.11-3.64 1.47-9.58 3.46-12-0.954-2.69-8.47 3.92-12.9 2.87-17.6l-0.515-0.156c-5.87 3.48-4.48 15.9-9.06 15.4-2.31-1.62-2.91-5.04-2.53-7.67 0.684-5.11 3.27-10.8 7-14.4 1.49-1.44 2.52-1.54 4.53-1.83 2.54-0.277 3.88-0.664 6.36-1.34z" fill="#AB7746"/>
<path d="m398 542c0.857 0.303 1.68 0.55 2.48 0.964-2.87 6.92-6.41 16.1-14.6 17.8-0.075-1.97-0.218-4.99 0.296-6.89 7e-3 1.52-0.237 2.02 0.469 3.18 5.08 1.24 9.68-11.8 11.3-15.1z" fill="#865A36"/>
<path d="m360 551c0.684-5.11 3.27-10.8 7-14.4 1.49-1.44 2.52-1.54 4.53-1.83-3.88 4.92-6.57 9.09-9.36 14.7-0.4 0.808-1.22 1.5-2.17 1.52z" fill="#D29F60"/>
<path d="m381 559c0.065 0.928 0.189 2.21 0.189 3.11-3.64 1.47-9.58 3.46-12-0.954 5.27-0.309 6.7 0.798 11.8-2.16z" fill="#865A36"/>
<path d="m213 439c3.81 0.531 9.75 0.602 13.7 0.723 0.105 12.9 0.31 25.7-1.22 38.4-0.368 3.08-0.537 7.08-1.32 10-0.81 0.69-0.986 0.414-2.41 0.371-4.41-0.635-8.81-1.36-13.2-2.17 1.3-5.15 3.36-11.1 4.32-16.3 1.8-9.78 1.03-21.2 0.171-31.1z" fill="#C13925"/>
<path d="m205 493c5.7 0.911 11.4 1.72 17.2 2.42-1.54 6.68-4.36 15.5-8 21.2-2.92 4.62-6.52 6.55-11.7 7.58-5.48 0.551-11 0.759-16.5 0.622 8.9-11.6 13.4-18.2 19-31.9z" fill="#F6F1DD"/>
<path d="m434 421c0.15-0.013 0.694 0.075 0.866 0.098 0.593 1.02 3.15 10.5 3.96 12.7 4.68 12.8 9.51 28.4 16.1 40.1-2.67 0.87-6.22 2.68-8.52 3.29l-0.527-0.358c-7.87-14.8-17.2-35.9-22.8-51.6 3.81-1.36 7.16-2.76 10.9-4.33z" fill="#D29F60"/>
<path d="m413 360c2.39-1.44 7.42-3.66 10-4.88 0.058 7.09 0.048 13.6-0.567 20.7-0.967 11.2-4.13 21.9-5.93 32.9-0.635-2.59-1.32-5.17-2.06-7.72l-12.1-35.8 10.6-5.21z" fill="#F6F1DD"/>
<path d="m413 360c2.39-1.44 7.42-3.66 10-4.88 0.059 7.09 0.049 13.6-0.566 20.7-0.968 11.2-4.13 21.9-5.93 32.9-0.635-2.59-1.32-5.17-2.06-7.72 4.04-2.8 1.89-38-1.48-41z" fill="#C4C1B2"/>
<path d="m194 491c1.03 0.293 2.72 1.08 3.77 1.52-5.26 14.7-11 20.3-20 32.4-5.28-0.042-10.4-0.85-15.6-1.8-1.63-0.502-5.52-1.63-5.4-3.81 0.212-3.55 5.4-6.66 8.43-7.81 12.7-4.83 19.6-10.8 28.8-20.5z" fill="#114B8E"/>
<path d="m268 286 0.685-0.697 0.404 0.22c-0.051 1.53-0.868 4.32-1.41 5.77-2.3 6.11-0.6 10.7 2.34 16.2-10.8 2.46-16.4 8.04-24.4 15.1-5.61-1.64-9.16-0.46-14.1 2.04-2.63 1.66-5.3 3.26-8.01 4.79 6.74-9.77 17.1-14 25.3-22.4 3.87-3.94 7.42-8.06 11-12.2 2.03-2.32 5.8-7.24 8.1-8.81z" fill="#C13925"/>
<path d="m224 329c6.74-9.77 17.1-14 25.3-22.4 3.87-3.94 7.42-8.06 11-12.2 2.03-2.32 5.8-7.24 8.1-8.81 0.637 5.83-12.8 18.3-16.4 22.3-5 5.76-7.42 8.41-14.5 11.3-0.682 0.275-5.12 4.29-5.58 4.97-2.63 1.66-5.3 3.26-8.01 4.79z" fill="#C34F38"/>
<path d="m344 389c2.08-0.127 4.15 1.78 6.23 3.06-0.058 4.12 0.824 8.94 1.32 13.1 1.56 12.9 3.97 24.8 7.45 37.3-1.4 0.436-4.06 1.51-5.25 0.82-1-2.66-2.05-5.82-2.86-8.54-4.25-14.2-9.98-28.8-13.6-43.1 2.24-0.915 4.49-1.79 6.76-2.62z" fill="#114B8E"/>
<path d="m225 333c1.26 2.07 4.61 2.18 6.7 1.52-6.79 13.7-7.01 19.8-7.81 34.6-4.61-0.172-8.95-0.153-13.6-0.11 1.55-12.5 1.54-22.9 10-33.8 1.88-2.41 1.51-1.26 4.05-2.02l0.6-0.189z" fill="#114B8E"/>
<path d="m470 486c13.3 2.76 26.2 2.48 39.5 4.88 3.12 0.564 6.63 1.63 4.77 5.45-1.92 3.84-8.78 6.89-12.7 8.97l-9.61-4.1c-7.86-3.42-15.7-9.3-22-15.2z" fill="#B78050"/>
<path d="m492 502c2.09-0.417 5.28-0.375 7.34-1.25 0.593-0.251 15.8-4.58 14.8-4.67l-0.358 0.918 0.55 0.137c-1.92 3.84-8.78 6.89-12.7 8.97l-9.61-4.1z" fill="#AB7746"/>
<path d="m271 346c-6.05-6.19-2.1-21.3 3.98-15.6 8.21 5.04 4.48 1.64 10.5 1.34 2.59 1.37 3.64 2.35 6.73 1.36 3.1-0.997 5.51-2.99 8.51-4.22-2.12 2.61-4.2 4.66-6.32 7.18-5.33 6.3-7.25 12.2-9.45 19.9-2.15-2.03-3.07-2.85-5.41-4.51-2.5-1.78-6.81-3.45-8.57-5.51z" fill="#F6F1DD"/>
<path d="m271 346c-6.05-6.19-2.1-21.3 3.98-15.6-1.3 1.06-3.58 13.3-3.98 15.6z" fill="#B78050"/>
<path d="m231 434c4.55 0.459 10.3 0.534 15 0.86-0.727 2.85-1.88 7.75-2.86 10.4-3.99 10.7-6.78 17.2-8.07 28.8-0.345 2.7-0.474 6.49-0.653 9.28-1.46-0.134-3.09-0.124-4.57-0.15 0.1-9.94 1.49-20.7 1.56-30.8 0.041-6.18-0.475-12.2-0.439-18.4z" fill="#0E3977"/>
<path d="m343 354c2.58 9.75 5.14 21.3 5.51 31.4-3.34-3.25-19.5-16.8-20.3-19-2.3 1.4-4.64 1.32-7.27 1.21l-1.7-0.131c0.691-2.01 1.32-2.6 2.66-4.16-1.74-0.241-3.47-0.531-5.19-0.866 1.77-0.101 3.02-0.098 4.75-0.541 0.515-0.782 0.38-0.342 0.18-1.41-0.664-0.596-1.11-1.08-1.71-1.72 2.15 0.87 4.46 1.86 6.71 1.21 1.05-0.908 0.723-0.348 0.951-1.77 1.73-0.017 12.8 6.14 14.5 7.54-0.042-3.83-0.361-8.15 0.847-11.7z" fill="#865A36"/>
<path d="m322 364c3.47 0.459 7.15 0.857 10.5 1.65-1.46 0.544-2.71 1.04-4.22 1.43-2.3 1.4-4.64 1.32-7.27 1.21l-1.7-0.131c0.691-2.01 1.32-2.6 2.66-4.16z" fill="#0F0C09"/>
<path d="m228 490 7.02 0.687c1.21 7.21 5.95 13.1 10.2 18.9-2.43 1.44-4.07 2-6.74 2.77-5.31 1.03-10.9 0.723-16.3 0.385 2.3-6.22 4.49-16.4 5.84-22.8z" fill="#C4C1B2"/>
<path d="m259 353c5.99-8.1 2.58-11.7 4.53-16.5l0.441-0.172c1.68 1.72 0.833 5.6 2.14 8.25 1.47 2.99 2.5 4 4.79 6.36 5.91 3.74 9.62 4.4 12.6 10.8 0.42 1.31 0.397 2.44 0.099 3.75-0.153 0.159-0.307 0.319-0.461 0.478-3.18-1.2-5.87-3.3-9.1-4.54-6.33-2.42-13.3-1.64-19.8-0.743-0.866 0.101-1.84 0.261-2.7 0.251l-2.04-0.039c-0.898-0.733-0.607-0.264-0.79-1.52 0.462-1.03 0.427-1.13 1.3-1.9 3.91-1.02 5.96-1.74 9.02-4.44z" fill="#AB7746"/>
<path d="m259 353c5.99-8.1 2.58-11.7 4.53-16.5l0.441-0.172c1.68 1.72 0.833 5.6 2.14 8.25 1.47 2.99 2.5 4 4.79 6.36-2.87 0.065-5.39 0.042-8.18 0.885-1.21 0.362-2.56 1.04-3.73 1.22z" fill="#865A36"/>
<path d="m254 361c12.7-5.97 17.4-3.09 28.9 3.57 0.51-0.655 0.369-1.51 0.406-2.52 0.42 1.31 0.397 2.44 0.099 3.75-0.153 0.159-0.307 0.319-0.461 0.478-3.18-1.2-5.87-3.3-9.1-4.54-6.33-2.42-13.3-1.64-19.8-0.743z" fill="#835938"/>
<path d="m311 340c0.037 6.74-0.362 8.44 2.74 14.6 2.21 2.76 3.27 3.18 6.34 4.81 0.6 0.645 1.05 1.13 1.71 1.72 0.2 1.07 0.335 0.628-0.18 1.41-1.73 0.443-2.98 0.44-4.75 0.541l-3.74-0.586c-7.39-0.583-9.66-0.443-16.9 1.75-1.93 0.788-5.38 2.38-7.27 2.62l-0.678-0.316c-0.305-0.895-0.301-0.544-0.162-1.43 1.86-8.46 9.02-8.74 15.4-12.9l0.332-0.221c4.89-3.82 5.6-6.12 7.22-12z" fill="#AB7746"/>
<path d="m294 362 0.263-0.107c2.83-1.15 18.1-7.08 19.5-2.9-0.435 1.11-0.796 1.61-0.451 2.81-7.39-0.583-9.66-0.443-16.9 1.75-0.744-0.352-1.72-1.07-2.44-1.55z" fill="#865A36"/>
<path d="m311 340c0.037 6.74-0.362 8.44 2.74 14.6-2.65-0.486-5.21-1.73-7.8-2.15-1.01-0.166-1.06-0.14-2.16-0.426 4.89-3.82 5.6-6.12 7.22-12z" fill="#865A36"/>
<path d="m288 365 0.386 0.198c1.08-0.358 3.9-2.01 5.28-2.63 0.715 0.485 1.69 1.2 2.44 1.55-1.93 0.788-5.38 2.38-7.27 2.62l-0.678-0.316c-0.305-0.895-0.301-0.544-0.162-1.43z" fill="#744B2F"/>
<path d="m425 384c1.33 7.46 5.09 23.4 7.67 30.5-2.96 1.13-6.51 2.6-9.48 3.56-0.889 0.391-2.02 0.798-2.94 1.16-1.19-3.28-2.18-6.13-3.2-9.49l1.09-3.28c3.05-8.14 4.26-14.8 6.86-22.4z" fill="#C4C1B2"/>
<path d="m418 406c0.828 0.208 1.36 0.195 1.82 1.06 1.52 2.91 2.44 7.36 3.23 10.5-0.889 0.391-2.02 0.798-2.94 1.16-1.19-3.28-2.18-6.13-3.2-9.49l1.09-3.28z" fill="#F6F1DD"/>
<path d="m229 380c-0.252-11.9-0.154-19.6 2.74-31.5 1.29 3.94 1.35 5.54 3.17 9.7 2.12-0.29 8.93-1.03 10.6-1.8 1.58 1.21 2.38 1.08 4.41 0.944-0.87 0.769-0.836 0.87-1.3 1.9 0.184 1.25-0.108 0.782 0.79 1.52l2.04 0.039c-3.28 0.788-6.62-0.397-9.01 0.537l-0.067 0.508c0.929 1.06 2.05 1.43 3.35 2.04-5.92 6.98-10.7 10.1-16.7 16.1z" fill="#865A36"/>
<path d="m304 332c5.67 3.94 2.72 12.1-2.03 15.4-3.06 2.17-5.64 2.86-9 4.35-0.756 0.475-1.18 0.873-2.05 0.83l-0.239-0.781c1.28-6.66 8.32-15.5 13.3-19.8z" fill="#114B8E"/>
<path d="m342 516c0.876 0.228 4.26 1.85 4.85 2.31 3.88 3.04 22.3 10.3 24.3 12.7-9.85 0.603-25.1-5.79-29.2-15z" fill="#AB7746"/>
<path d="m369 516c0.778-0.062 0.733-0.085 1.46 0.185 1.02 1.57 3.08 8.71 3.76 11-2.11-0.794-4.68-2.09-6.77-3.07-3.07-1.33-6.11-2.74-9.1-4.24 3.53-1.32 7.08-2.6 10.6-3.84z" fill="#A7A6A6" fill-opacity=".741"/>
<path d="m255 319c8.72-6.9 16.2-12.9 25.7-3.46-7.72-4.41-18.4-1.38-24 5l-0.239 0.997c-0.465-1.41-0.461-1.5-1.46-2.54z" fill="#B89B85"/>
<path d="m255 365 1.07 0.01 0.349 0.541c-0.049 1.98-0.905 4.58-1.4 6.67-2.45-0.209-4.9-0.456-7.35-0.743-0.962-0.277-1.48-0.378-2.37-0.879l0.295-0.346c3.18-3.66 4.69-4.92 9.41-5.25z" fill="#0E3977"/>
<path d="m225 333c5.74-3.62 8.81-5.93 15.5-7.28-3.9 2.8-6.22 4.78-8.84 8.79-2.08 0.658-5.43 0.557-6.7-1.52z" fill="#1E5AB0"/>
<path d="m266 191c0.818 0.134 0.512-0.075 1.01 0.501-0.67 2.46-2.32 6.42-3.21 9.22l-0.394-0.043c-2.51-2.72-0.627-7.84 2.59-9.68z" fill="#865A36"/>
<path d="m202 477 0.854 0.528 0.39-0.664 0.276 0.498c-0.702 2.93-1.39 6.22-3.7 8.28l-0.581-0.186c-0.384-2.26 1.74-6.21 2.76-8.45z" fill="#EEC846"/>
<path d="m334 379c1.32 0.654 4.39 2.75 4.93 4.1l-0.349 0.423-3.07 1.48c-1.12-2.59-1.23-3.31-1.51-6.01z" fill="#EEC846"/>
<path d="m205 470c-0.434 2.16-0.956 5.2-1.64 7.2l-0.276-0.498-0.39 0.664-0.854-0.528c0.977-2.34 1.87-4.65 3.16-6.84z" fill="#A4A357"/>
<path d="m508 508c5.46-3.76 8.56-5.4 11.7-11.3l0.185 0.824 0.228-0.234c2.34-2.4 7.35 0.563 10.2 1.69 10.6 4.2 19.2 8.93 26.9 17.4 10.9 12.1 4.26 22.9-7.49 31-16.4 11.3-37.6 17.1-56.8 21.8-43.5 10.2-87 13.2-131 13.8-24.4 0.479-48.7-0.277-73-2.26-36.4-3.24-108-12.9-137-35.9-0.694-1.07-2.32-2.58-3.22-3.53-6.58-6.92-8.84-16.2-1.73-23.8 3.52-3.79 10.1-8.57 15.4-8.88-5.27 3.22-8.13 4.45-9.54 10.9 0.639 2.67 1.49 4.84 4 6.3 7.6 4.43 42.7 5.25 51.3 2.65 5.74-1.74 9.95-6.27 12.8-11.4 5.7 0.931 9.75 0.625 15.5 0.345-1.31 0.485-1.96 0.603-2.96 1.53l0.3 0.342 1.15-0.023c-4.27 2.96-11.3 4.95-12 11.5-1.1 10.7 9.42 13.8 17.9 14.7 2.32 0.241 4.61 0.388 6.95-0.032 14.4-2.78 28.6-6.97 42.6-11.2 3.47-1.04 8.32-2.36 10.8-5 3-3.22 5.26-5.97 8.75-8.76 3.91 0.508 8.76 1.58 13 2.24 4.59 1.37 18.3 1.42 21.9 3.52 6.93 4.1 9.98 6.41 18.2 9.09-5.74 7.86-12 21.6-0.798 28.1 2.2 1.28 5.84 3.72 8.42 4.41 6.24 1.68 14.9-0.918 20.6-3.67 6.34-3.42 12.5-13.9 14.3-20.4 3.43 1.17 6.91 2.22 10.4 3.15 27.9 7.27 63.2 1.85 91.6-3.64 8.72-1.68 37-6.55 27.3-23.5-3.55-6.2-19.6-10.4-26.7-11.8z" fill="#A7A6A6" fill-opacity=".737"/>
<path d="m151 544c-3.01-1.72-7.94-6.76-9.56-10-2.4-4.81-1.5-9.96 1.31-14.6 6.33-10.5 18.2-16.4 29.2-21 1.75-0.736 4.44-0.199 6.28-0.133 6e-3 0 1.96-0.906 2.13-0.987-2.49 2.3-15.9 9.58-18.9 10.5-5.32 0.309-11.9 5.09-15.4 8.88-7.1 7.65-4.85 16.9 1.73 23.8 0.903 0.951 2.53 2.46 3.22 3.53z" fill="#A7A6A6" fill-opacity=".522"/>
<path d="m236 517c0.892-0.133 1.15-0.355 1.72 0.013-1.24 0.925-1.8 1.15-3.23 1.84l-1.15 0.023-0.3-0.342c0.996-0.928 1.64-1.05 2.96-1.53z" fill="#C4C1B2" fill-opacity=".275"/>
</svg>
